<svg xmlns="http://www.w3.org/2000/svg" width="46.708" height="147.663" viewBox="0 0 46.708 147.663">
  <g id="left" transform="translate(0.494 0.188)">
    <g id="Group_36403" data-name="Group 36403">
      <path id="Path_32456" data-name="Path 32456" d="M329.609,2291.746c2.488-11.723,9.157-20.391,15.888-28.069,6.847-7.809,13.921-15.29,20.651-23.261a38.753,38.753,0,0,0,8.21-16.964,33.866,33.866,0,0,0-5.876-28.117c-5.288-7.165-11.307-13.447-17.179-19.847-6.055-6.6-12.666-12.435-17.221-21.036-1.642-3.1-4.473-10.078-4.473-10.078s0,2.036,0,3.055q-.032,70.388,0,140.776A29.089,29.089,0,0,0,329.609,2291.746Z" transform="translate(-329.545 -2144.374)" fill="#edeef2" stroke="#0dd0d0" stroke-width="1"/>
      <g id="Group_35787" data-name="Group 35787" transform="translate(10.27 61.042)">
        <path id="arrow_back_ios_new_FILL0_wght400_GRAD0_opsz48" d="M263.042,192.083,255,184.042,263.042,176l1.126,1.146-6.9,6.9,6.9,6.9Z" transform="translate(-247.542 -171.247)" fill="#0dd0d0"/>
        <g id="Ellipse_823" data-name="Ellipse 823" fill="none" stroke="#0dd0d0" stroke-width="1">
          <circle cx="12.5" cy="12.5" r="12.5" stroke="none"/>
          <circle cx="12.5" cy="12.5" r="12" fill="none"/>
        </g>
      </g>
    </g>
  </g>
</svg>
