<svg xmlns="http://www.w3.org/2000/svg" width="14.393" height="17.193" viewBox="0 0 14.393 17.193">
  <path id="apple" d="M14.392,12.553a9.983,9.983,0,0,1-1.271,2.583q-1.333,2.025-2.655,2.025a4.775,4.775,0,0,1-1.447-.33,4.57,4.57,0,0,0-1.56-.33,3.976,3.976,0,0,0-1.467.341,3.732,3.732,0,0,1-1.364.351q-1.57,0-3.11-2.676A10.6,10.6,0,0,1,0,9.319,6.128,6.128,0,0,1,1.168,5.455,3.585,3.585,0,0,1,4.1,3.968a6.872,6.872,0,0,1,1.829.31,6.654,6.654,0,0,0,1.426.31,5.168,5.168,0,0,0,1.478-.351,5.834,5.834,0,0,1,1.787-.351,3.777,3.777,0,0,1,2.2.671A5.335,5.335,0,0,1,13.9,5.589a6.7,6.7,0,0,0-1.178,1.219,3.68,3.68,0,0,0-.671,2.139,3.935,3.935,0,0,0,.713,2.3,3.142,3.142,0,0,0,1.632,1.3ZM10.507.434a3.94,3.94,0,0,1-.3,1.4,4.239,4.239,0,0,1-.961,1.426,2.929,2.929,0,0,1-1.116.744,5.772,5.772,0,0,1-1.075.176A4.709,4.709,0,0,1,7.862,1.53,4.116,4.116,0,0,1,10.446,0a.958.958,0,0,1,.026.114A.958.958,0,0,0,10.5.227q0,.042.005.1t.005.1Z" fill="#028e8e"/>
</svg>
