<svg xmlns="http://www.w3.org/2000/svg" width="17.538" height="16" viewBox="0 0 17.538 16">
  <path id="attachment-line" d="M5.518,19.406A3.453,3.453,0,0,1,3.1,18.413l-.071-.071A3.4,3.4,0,0,1,2,15.909a3.71,3.71,0,0,1,1.1-2.642l8.495-8.4a4.752,4.752,0,0,1,6.659-.192,4.384,4.384,0,0,1,1.288,3.135,4.932,4.932,0,0,1-1.48,3.486l-7.634,7.563a.548.548,0,1,1-.751-.778l7.612-7.563a3.836,3.836,0,0,0,1.156-2.707,3.288,3.288,0,0,0-.965-2.357,3.656,3.656,0,0,0-5.119.192l-8.467,8.4A2.62,2.62,0,0,0,3.1,15.909a2.307,2.307,0,0,0,.68,1.644l.071.071a2.543,2.543,0,0,0,3.562-.115l7.316-7.234a1.48,1.48,0,0,0,.427-1.063,1.288,1.288,0,0,0-.378-.921,1.43,1.43,0,0,0-2.006.071l-5.042,5a.548.548,0,0,1-.773-.778l5.064-5.015A2.532,2.532,0,0,1,15.57,7.5a2.373,2.373,0,0,1,.68,1.715,2.565,2.565,0,0,1-.773,1.83L8.182,18.3A3.787,3.787,0,0,1,5.518,19.406Z" transform="translate(-2 -3.406)" fill="#fff"/>
</svg>
