<svg xmlns="http://www.w3.org/2000/svg" width="22.871" height="21.234" viewBox="0 0 22.871 21.234">
  <g id="Group_36230" data-name="Group 36230" transform="translate(0)">
    <path id="Path_33354" data-name="Path 33354" d="M-999.282,289.527a7.159,7.159,0,0,0-7.767,2.555,7.135,7.135,0,0,0-.627,8.124c-.042.053-.114.02-.175.02q-3.519,0-7.039,0a3.547,3.547,0,0,1-3.606-3.1,2.387,2.387,0,0,1-.015-.356q0-4.259,0-8.517c0-.19.035-.255.244-.255q9.372.01,18.745,0c.207,0,.255.06.248.256C-999.292,288.675-999.282,289.1-999.282,289.527Z" transform="translate(1018.521 -280.995)" fill="#fff"/>
    <path id="Path_33355" data-name="Path 33355" d="M-849.549,336.136a5.672,5.672,0,0,1,5.685-5.661,5.711,5.711,0,0,1,5.661,5.8,5.692,5.692,0,0,1-5.707,5.541A5.654,5.654,0,0,1-849.549,336.136Zm4.858-.834c0,.263,0,.527,0,.79a.818.818,0,0,0,.879.868q.739,0,1.478,0a.808.808,0,0,0,.863-.8.808.808,0,0,0-.846-.822c-.2-.005-.391-.01-.586,0-.138.008-.168-.043-.168-.173a4.518,4.518,0,0,0-.021-.839.8.8,0,0,0-.832-.669.818.818,0,0,0-.764.8C-844.695,334.742-844.691,335.022-844.691,335.3Z" transform="translate(861.073 -320.578)" fill="#fff"/>
    <path id="Path_33356" data-name="Path 33356" d="M-1003.739,204.513a4.1,4.1,0,0,1,3.008.733,3.637,3.637,0,0,1,1.368,3.209c0,.1-.041.137-.137.131-.051,0-.1,0-.153,0q-9.328,0-18.657.005c-.23,0-.284-.055-.292-.288a3.531,3.531,0,0,1,1.658-3.259,3.14,3.14,0,0,1,1.646-.53,7.3,7.3,0,0,1,1.092.006l-.005,0a.907.907,0,0,1,.017.124c0,.653-.006,1.307,0,1.96a.822.822,0,0,0,.809.865.823.823,0,0,0,.808-.887q0-1.031,0-2.062l-.008.006a1.008,1.008,0,0,1,.146-.021h6.838c.05,0,.1.008.151.012l.022.006.023,0q0,1.1,0,2.2c-.005.005-.016.012-.015.015a.23.23,0,0,0,.019.035.841.841,0,0,0,.781.7.837.837,0,0,0,.824-.651c.043-.029.05-.062.01-.1q0-1.1,0-2.2l.019,0Z" transform="translate(1018.603 -203.183)" fill="#fff"/>
    <path id="Path_33357" data-name="Path 33357" d="M-825.529,186.633l-.023,0-.022-.006a1.787,1.787,0,0,0,.024-.478.83.83,0,0,1,.845-.851.825.825,0,0,1,.818.875c0,.152.011.3.017.455l-.018.006-.019,0Z" transform="translate(838.733 -185.301)" fill="#fff"/>
    <path id="Path_33358" data-name="Path 33358" d="M-954.144,186.675l.014-.616a.1.1,0,0,0,.032-.108.772.772,0,0,1,.867-.607.791.791,0,0,1,.72.7,2.059,2.059,0,0,1-.008.63l.008-.006h-1.638Z" transform="translate(958.543 -185.338)" fill="#fff"/>
    <path id="Path_33359" data-name="Path 33359" d="M-953.914,194.287a.1.1,0,0,1-.032.108A.094.094,0,0,1-953.914,194.287Z" transform="translate(958.359 -193.674)" fill="#171719"/>
    <path id="Path_33360" data-name="Path 33360" d="M-778.309,378.77c0-.28,0-.561,0-.841a.818.818,0,0,1,.764-.8.8.8,0,0,1,.832.669,4.507,4.507,0,0,1,.021.839c0,.13.03.181.168.173.195-.012.391-.007.586,0a.808.808,0,0,1,.847.822.808.808,0,0,1-.863.8q-.739,0-1.478,0a.818.818,0,0,1-.879-.868C-778.31,379.3-778.309,379.033-778.309,378.77Z" transform="translate(794.692 -364.046)" fill="#0dd0d0"/>
    <path id="Path_33361" data-name="Path 33361" d="M-801.292,237.181l.01-.1C-801.242,237.119-801.249,237.152-801.292,237.181Z" transform="translate(816.106 -233.551)" fill="#171719"/>
    <path id="Path_33362" data-name="Path 33362" d="M-825.1,237.06l0,.05a.229.229,0,0,1-.019-.035S-825.1,237.065-825.1,237.06Z" transform="translate(838.301 -233.532)" fill="#171719"/>
  </g>
</svg>
