<svg xmlns="http://www.w3.org/2000/svg" width="12.678" height="12.678" viewBox="0 0 12.678 12.678">
  <g id="calendar" transform="translate(-2.25 -2.25)">
    <path id="Path_32449" data-name="Path 32449" d="M14.475,3.156H13.117V2.25h-.906v.906H4.967V2.25H4.061v.906H2.7l-.453.453V14.475l.453.453H14.475l.453-.453V3.608Zm-.453,10.867H3.156V5.872H14.022Zm0-9.056H3.156V4.061H14.022ZM4.967,8.589H4.061v.906h.906ZM4.061,10.4h.906v.906H4.061Zm.906,1.811H4.061v.906h.906ZM6.778,8.589h.906v.906H6.778ZM7.683,10.4H6.778v.906h.906Zm-.906,1.811h.906v.906H6.778Zm.906-5.433H6.778v.906h.906ZM9.494,8.589H10.4v.906H9.494ZM10.4,10.4H9.494v.906H10.4Zm-.906,1.811H10.4v.906H9.494ZM10.4,6.778H9.494v.906H10.4Zm1.811,1.811h.906v.906h-.906Zm.906,1.811h-.906v.906h.906Zm-.906-3.622h.906v.906h-.906Z" fill="#028e8e" fill-rule="evenodd"/>
  </g>
</svg>
