<svg id="calendar3" xmlns="http://www.w3.org/2000/svg" width="13.141" height="13.141" viewBox="0 0 13.141 13.141">
  <path id="Path_33368" data-name="Path 33368" d="M11.5,0H1.643A1.643,1.643,0,0,0,0,1.643V11.5a1.643,1.643,0,0,0,1.643,1.643H11.5A1.643,1.643,0,0,0,13.141,11.5V1.643A1.643,1.643,0,0,0,11.5,0ZM.821,3.168a.77.77,0,0,1,.821-.7H11.5a.77.77,0,0,1,.821.7v8.448a.77.77,0,0,1-.821.7H1.643a.77.77,0,0,1-.821-.7Z" transform="translate(0)" fill="#fff" fill-rule="evenodd"/>
  <path id="Path_33369" data-name="Path 33369" d="M8.91,12.893a.821.821,0,1,0-.821-.821A.821.821,0,0,0,8.91,12.893Zm2.464,0a.821.821,0,1,0-.821-.821A.821.821,0,0,0,11.374,12.893Zm2.464,0a.821.821,0,1,0-.821-.821A.821.821,0,0,0,13.838,12.893ZM6.446,15.357a.821.821,0,1,0-.821-.821A.821.821,0,0,0,6.446,15.357Zm2.464,0a.821.821,0,1,0-.821-.821A.821.821,0,0,0,8.91,15.357Zm2.464,0a.821.821,0,1,0-.821-.821A.821.821,0,0,0,11.374,15.357Zm2.464,0a.821.821,0,1,0-.821-.821A.821.821,0,0,0,13.838,15.357ZM6.446,17.821A.821.821,0,1,0,5.625,17,.821.821,0,0,0,6.446,17.821Zm2.464,0A.821.821,0,1,0,8.089,17,.821.821,0,0,0,8.91,17.821Zm2.464,0A.821.821,0,1,0,10.553,17,.821.821,0,0,0,11.374,17.821Z" transform="translate(-3.572 -7.143)" fill="#fff" fill-rule="evenodd"/>
</svg>
