<svg xmlns="http://www.w3.org/2000/svg" width="57.875" height="57.876" viewBox="0 0 57.875 57.876">
  <path id="cancel-circle" d="M57.875,28.974A28.347,28.347,0,0,1,54,43.5,28.732,28.732,0,0,1,43.464,54.034a28.347,28.347,0,0,1-14.527,3.878,28.347,28.347,0,0,1-14.527-3.878A28.732,28.732,0,0,1,3.878,43.5,28.347,28.347,0,0,1,0,28.974,28.347,28.347,0,0,1,3.878,14.447,28.732,28.732,0,0,1,14.411,3.914,28.347,28.347,0,0,1,28.938.036,28.347,28.347,0,0,1,43.464,3.914,28.732,28.732,0,0,1,54,14.447a28.347,28.347,0,0,1,3.878,14.527ZM38.256,42.4l4.109-4.109-9.318-9.318,9.318-9.318-4.109-4.109-9.318,9.318L19.62,15.547l-4.109,4.109,9.318,9.318-9.318,9.318L19.62,42.4l9.318-9.318Z" transform="translate(0 -0.036)" fill="#028e8e"/>
</svg>
