<svg id="Group_36049" data-name="Group 36049" xmlns="http://www.w3.org/2000/svg" width="35.069" height="21.916" viewBox="0 0 35.069 21.916">
  <g id="mastercard">
    <path id="Path_7" data-name="Path 7" d="M21.91,65.677A10.955,10.955,0,1,1,10.955,54.719,10.955,10.955,0,0,1,21.91,65.677Z" transform="translate(0 -54.719)" fill="#e2574c"/>
    <path id="Path_8" data-name="Path 8" d="M120.389,54.719a10.9,10.9,0,0,0-6.546,2.185h.009a9.388,9.388,0,0,1,1.062.992l-2.279.036a11.269,11.269,0,0,0-.99,1.161h4.019a10.186,10.186,0,0,1,.845,1.091h-5.593a10.919,10.919,0,0,0-.56,1.092h6.79a9.328,9.328,0,0,1,.471,1.058h-7.663a10.556,10.556,0,0,0-.3,1.159h8.289c.081.379.144.73.186,1.087h-8.64c-.036.361-.055.727-.055,1.1h8.757a9.628,9.628,0,0,1-.067,1.1h-8.635q.056.557.164,1.1h8.276c-.085.355-.184.712-.308,1.083h-7.688a10.635,10.635,0,0,0,.412,1.094h6.805a9.976,9.976,0,0,1-.638,1.091H110.9a10.662,10.662,0,0,0,.731,1.1l4.037.06a10.662,10.662,0,0,1-1.188,1.023c.022.018-.643,0-1.953-.023a10.955,10.955,0,1,0,7.866-18.579Z" transform="translate(-96.278 -54.719)" fill="#f4b459"/>
  </g>
</svg>
