<svg xmlns="http://www.w3.org/2000/svg" width="27.935" height="23.804" viewBox="0 0 27.935 23.804">
  <g id="Group_35886" data-name="Group 35886" transform="translate(-941.366 -290.813)">
    <g id="Group_35887" data-name="Group 35887" transform="translate(941.366 290.813)">
      <g id="_341_Bubble_chat_comment" data-name="341, Bubble, chat, comment">
        <g id="Group_35886-2" data-name="Group 35886">
          <path id="Path_32523" data-name="Path 32523" d="M953.334,291.637h21.237l-.494,19.756-3.951-1.976h-16.3Z" transform="translate(-947.423 -291.23)" fill="#fff"/>
          <path id="Path_32524" data-name="Path 32524" d="M963.828,308.011a1.693,1.693,0,0,0,0-3.386,1.711,1.711,0,0,0-1.693,1.693A1.679,1.679,0,0,0,963.828,308.011Zm0-2.092a.448.448,0,1,1-.448.448A.446.446,0,0,1,963.828,305.919Z" transform="translate(-951.877 -297.803)" fill="#0dd0d0"/>
          <path id="Path_32525" data-name="Path 32525" d="M973.407,308.011a1.693,1.693,0,1,0-1.693-1.693A1.745,1.745,0,0,0,973.407,308.011Zm0-2.092a.448.448,0,1,1-.448.448A.525.525,0,0,1,973.407,305.919Z" transform="translate(-956.725 -297.803)" fill="#0dd0d0"/>
          <path id="Path_32526" data-name="Path 32526" d="M983.086,308.011a1.693,1.693,0,1,0-1.693-1.693A1.679,1.679,0,0,0,983.086,308.011Zm0-2.092a.448.448,0,1,1-.448.448A.446.446,0,0,1,983.086,305.919Z" transform="translate(-961.624 -297.803)" fill="#0dd0d0"/>
          <path id="Path_32527" data-name="Path 32527" d="M968.7,290.813H947.541a.659.659,0,0,0-.648.647v6.225h-4.88a.659.659,0,0,0-.647.647v15.685a.6.6,0,0,0,1,.448l3.286-2.739H958.1a.659.659,0,0,0,.647-.647v-2.141h5.178l4.382,3.635a.565.565,0,0,0,.4.15.617.617,0,0,0,.6-.648V291.46A.652.652,0,0,0,968.7,290.813Zm-11.2,19.669h-12a.562.562,0,0,0-.4.15l-2.44,2.041V298.929h4.232v9.412a.659.659,0,0,0,.648.647H957.5Zm10.556.3-3.535-2.938a.564.564,0,0,0-.4-.15H948.138V292.058h19.918v18.723Z" transform="translate(-941.366 -290.813)" fill="#fff"/>
        </g>
      </g>
    </g>
  </g>
</svg>
