<svg id="clock" xmlns="http://www.w3.org/2000/svg" width="14.114" height="14.114" viewBox="0 0 14.114 14.114">
  <path id="Path_33370" data-name="Path 33370" d="M7.057,13.232A6.175,6.175,0,1,0,.882,7.057,6.175,6.175,0,0,0,7.057,13.232Zm7.057-6.175A7.057,7.057,0,1,1,7.057,0a7.057,7.057,0,0,1,7.057,7.057Z" transform="translate(0 0)" fill="#fff" fill-rule="evenodd"/>
  <path id="Path_33371" data-name="Path 33371" d="M16.191,6.75a.441.441,0,0,1,.441.441v4.6L19.5,13.424a.441.441,0,0,1-.438.766l-3.087-1.764a.441.441,0,0,1-.222-.383V7.191A.441.441,0,0,1,16.191,6.75Z" transform="translate(-9.575 -4.104)" fill="#fff" fill-rule="evenodd"/>
</svg>
