<svg xmlns="http://www.w3.org/2000/svg" width="84" height="79" viewBox="0 0 84 79">
  <g id="Group_36041" data-name="Group 36041" transform="translate(2600 -4394)">
    <rect id="_Image_Replace_Background_Mask_" data-name="[ Image Replace ] (Background/Mask)" width="84" height="79" rx="14" transform="translate(-2600 4394)" fill="#fff"/>
    <g id="Group_36045" data-name="Group 36045" transform="translate(-3118.332 5141.2)">
      <path id="Path_32546" data-name="Path 32546" d="M560.9-738.2a30.508,30.508,0,0,1,30.436,30.307A30.491,30.491,0,0,1,561.011-677.2a30.511,30.511,0,0,1-30.679-30.407A30.51,30.51,0,0,1,560.9-738.2ZM590.6-707.688a29.745,29.745,0,0,0-29.8-29.767,29.745,29.745,0,0,0-29.723,29.577,29.742,29.742,0,0,0,29.7,29.936A29.748,29.748,0,0,0,590.6-707.688Z" transform="translate(0)" fill="#244169"/>
      <path id="Path_32547" data-name="Path 32547" d="M575.21-668.772a24.6,24.6,0,0,1,24.559-24.565A24.558,24.558,0,0,1,624.375-668.7a24.554,24.554,0,0,1-24.58,24.526A24.575,24.575,0,0,1,575.21-668.772Zm48.449.036A23.868,23.868,0,0,0,600.03-692.6,23.832,23.832,0,0,0,575.956-669a23.827,23.827,0,0,0,23.715,24.1A23.856,23.856,0,0,0,623.659-668.736Z" transform="translate(-38.961 -38.948)" fill="#244169"/>
      <path id="Path_32548" data-name="Path 32548" d="M875.005-681.406c-.888.185-.888.185-.939-.752-.219.054-.255.284-.4.409-.112.1-.185.264-.373.127s-.095-.256,0-.386c.278-.366.553-.734.832-1.1.08-.105.17-.214.325-.142.139.064.148.194.162.331.036.377-.307.872.011,1.088.249.169.665-.213,1.011-.341a.289.289,0,0,1,.353.087c.116.14.014.24-.063.343-.262.351-.522.7-.791,1.049-.1.129-.187.339-.409.168s-.018-.3.058-.441S875.044-681.2,875.005-681.406Z" transform="translate(-297.656 -47.686)" fill="#244169"/>
      <path id="Path_32549" data-name="Path 32549" d="M549.219-525.256c-.176-.01-.285-.015-.395-.024-1.068-.081-1.217-.3-.886-1.332.108-.337.308-.532.689-.391a.551.551,0,0,0,.426.038c.606-.206.841-.021.854.618,0,.153-.027.308-.018.46C549.922-525.344,549.712-525.1,549.219-525.256Zm.321-.948c-.022-.148.014-.384-.22-.375-.3.011-.228.308-.274.5s.028.346.256.332C549.6-525.767,549.5-526.021,549.541-526.2Zm-1.06.417c.242-.012.219-.209.227-.375s.013-.392-.223-.38c-.266.013-.215.276-.248.452S548.263-525.792,548.48-525.787Z" transform="translate(-15.149 -183.313)" fill="#244169"/>
      <path id="Path_32550" data-name="Path 32550" d="M825.381-708.17a.932.932,0,0,1-1.055.921c-.427-.075-1.053,0-1.149-.6-.078-.48.6-1.594.818-1.578C824.733-709.375,825.412-708.759,825.381-708.17Zm-1.185.517c.419.025.652-.156.686-.549a.569.569,0,0,0-.562-.668c-.568-.025-.45.547-.567.855C823.624-707.678,824.04-707.756,824.2-707.654Z" transform="translate(-254.23 -24.979)" fill="#244169"/>
      <path id="Path_32551" data-name="Path 32551" d="M746.424-719.575c0,.408,0,.643,0,.878,0,.149-.036.263-.209.268-.145,0-.264-.041-.268-.212a12.426,12.426,0,0,1-.017-1.578c.035-.348.31-.226.474-.063.258.258.489.543.76.849a.877.877,0,0,0,.116-.614c.009-.162-.069-.384.205-.4.312-.017.262.228.27.416.016.395.029.79.026,1.185,0,.136.071.328-.145.382a.392.392,0,0,1-.4-.179Z" transform="translate(-187.154 -15.412)" fill="#244169"/>
      <path id="Path_32552" data-name="Path 32552" d="M859.218-692.791a.667.667,0,0,1-.474.639c-.186.066-.3.13-.275.358.011.115.148.344-.122.344a.314.314,0,0,1-.3-.3c-.05-.477-.057-1.014-.688-.341-.039.042-.25-.034-.347-.1s-.067-.189,0-.291c.3-.443.594-.89.9-1.331a.249.249,0,0,1,.162-.095C858.431-693.941,859.232-693.15,859.218-692.791Zm-.458-.086a.5.5,0,0,0-.433-.417c-.276-.037-.385.241-.381.421,0,.239.274.313.482.332S858.718-692.689,858.76-692.877Z" transform="translate(-283.56 -38.449)" fill="#244169"/>
      <path id="Path_32553" data-name="Path 32553" d="M918.609-637.685a1.208,1.208,0,0,1-1.157-1.119,1.026,1.026,0,0,1,.965-1.041,1.2,1.2,0,0,1,1.151,1.121A1.015,1.015,0,0,1,918.609-637.685Zm.524-1.116c-.063-.349-.252-.606-.648-.576a.575.575,0,0,0-.576.66.552.552,0,0,0,.6.562A.6.6,0,0,0,919.133-638.8Z" transform="translate(-336.082 -85.388)" fill="#244169"/>
      <path id="Path_32554" data-name="Path 32554" d="M939.759-606.828a1.015,1.015,0,0,1-1.019.986,1.151,1.151,0,0,1-1.061-1.2,1.01,1.01,0,0,1,1.018-.984A1.159,1.159,0,0,1,939.759-606.828Zm-.426-.093c-.055-.372-.226-.628-.627-.612a.55.55,0,0,0-.587.627.556.556,0,0,0,.581.577A.59.59,0,0,0,939.333-606.92Z" transform="translate(-353.643 -113.016)" fill="#244169"/>
      <path id="Path_32555" data-name="Path 32555" d="M634.67-681.164a1.171,1.171,0,0,1-1.171,1.093,1.159,1.159,0,0,1-1.122-1.025c-.008-.442.787-1.112,1.3-1.1A1.073,1.073,0,0,1,634.67-681.164Zm-.468,0c-.076-.341-.281-.6-.66-.564a.562.562,0,0,0-.563.662.568.568,0,0,0,.61.557C633.962-680.523,634.172-680.76,634.2-681.167Z" transform="translate(-88.591 -48.623)" fill="#244169"/>
      <path id="Path_32556" data-name="Path 32556" d="M575.6-619.631c.017-.237-.206-.241-.334-.335s-.25-.185-.145-.372.248-.137.388-.054c.4.234.789.469,1.181.709.125.077.286.142.182.35-.113.226-.263.191-.422.068-.278-.215-.459-.2-.67.133-.235.368-.057.5.222.645.145.077.252.184.138.366s-.246.115-.386.03c-.374-.227-.754-.443-1.123-.676-.132-.083-.36-.134-.215-.385.134-.232.273-.109.436-.031A.537.537,0,0,0,575.6-619.631Z" transform="translate(-38.23 -102.21)" fill="#244169"/>
      <path id="Path_32557" data-name="Path 32557" d="M552.231-546.9c.075.333-.143.424-.354.558-.248.157-.642.37-.022.579a.233.233,0,0,1,.177.3c-.038.217-.2.2-.354.171a7.825,7.825,0,0,1-.9-.176c-.249-.076-.694.089-.71-.288a1.353,1.353,0,0,1,.509-1.345.653.653,0,0,1,.92.23C551.759-546.524,551.954-546.967,552.231-546.9Zm-1,.637c.013-.223-.067-.4-.3-.427-.332-.04-.388.226-.43.461-.054.3.192.276.379.31C551.157-545.866,551.208-546.045,551.23-546.259Z" transform="translate(-17.128 -165.812)" fill="#244169"/>
      <path id="Path_32558" data-name="Path 32558" d="M726.016-717.3a1.016,1.016,0,0,1-1.122,1.012.977.977,0,0,1-1.036-1.019,1.053,1.053,0,0,1,1.129-1.021A.978.978,0,0,1,726.016-717.3Zm-.451-.012c-.054-.345-.226-.593-.624-.593a.544.544,0,0,0-.593.557.534.534,0,0,0,.566.637A.6.6,0,0,0,725.565-717.313Z" transform="translate(-168.012 -17.25)" fill="#244169"/>
      <path id="Path_32559" data-name="Path 32559" d="M777.155-717.463a1.049,1.049,0,0,1-1.094-1.052,1.026,1.026,0,0,1,1.1-.966,1.062,1.062,0,0,1,1.1,1.055A1.025,1.025,0,0,1,777.155-717.463Zm-.034-.4c.4-.016.635-.212.646-.6a.551.551,0,0,0-.613-.6.53.53,0,0,0-.592.548A.572.572,0,0,0,777.121-717.866Z" transform="translate(-213.331 -16.25)" fill="#244169"/>
      <path id="Path_32560" data-name="Path 32560" d="M954.8-558.511c.038-.181-.06-.473.214-.478.319-.006.15.29.181.459.037.2-.033.521.259.511.256-.008.156-.312.173-.491.03-.315.056-.631.424-.736a.525.525,0,0,1,.615.272,1.117,1.117,0,0,1,.155,1,.217.217,0,0,1-.139.112.151.151,0,0,1-.187-.136c-.021-.151-.008-.306-.033-.456-.021-.126-.054-.283-.218-.286s-.18.156-.2.283a.531.531,0,0,0-.007.065c-.025.413.033.939-.59.881C954.883-557.561,954.839-558.064,954.8-558.511Z" transform="translate(-368.503 -155.341)" fill="#244169"/>
      <path id="Path_32561" data-name="Path 32561" d="M567.286-600.6a2.253,2.253,0,0,1,.2-.44c.109-.161.2-.487.465-.317s-.046.315-.123.466-.242.319-.073.467c.2.174.3-.071.409-.179.23-.227.41-.542.813-.415a.5.5,0,0,1,.361.5,1.363,1.363,0,0,1-.491,1.032.2.2,0,0,1-.29.021c-.1-.093-.075-.186,0-.281a2.83,2.83,0,0,0,.28-.361c.075-.126.176-.291,0-.4-.137-.085-.236.051-.325.142-.107.11-.2.23-.314.334a.481.481,0,0,1-.593.132A.633.633,0,0,1,567.286-600.6Z" transform="translate(-32.079 -118.757)" fill="#244169"/>
      <path id="Path_32562" data-name="Path 32562" d="M947.461-586.728c.129-.043.252-.086.321.1.049.126.019.226-.1.267-.218.075-.438.3-.673.127a1.187,1.187,0,0,1-.477-1.036.916.916,0,0,1,.629-.908.947.947,0,0,1,1.036.2,1.1,1.1,0,0,1,.373.748c.015.2.1.516-.195.54s-.19-.277-.206-.459a.62.62,0,0,0-.443-.591.577.577,0,0,0-.647.208.634.634,0,0,0-.056.682C947.113-586.625,947.286-586.672,947.461-586.728Z" transform="translate(-361.329 -130.173)" fill="#244169"/>
      <path id="Path_32563" data-name="Path 32563" d="M959.959-524.533c.012.372-.09.674.183.715.242.036.211-.275.258-.45.082-.3.133-.616.522-.663a.506.506,0,0,1,.506.236,1.308,1.308,0,0,1,.118,1.072.25.25,0,0,1-.191.134c-.124.005-.19-.085-.18-.215a4.064,4.064,0,0,0,.03-.454c0-.1-.014-.237-.148-.26-.17-.03-.215.105-.247.235-.016.063-.02.129-.033.193-.068.326-.127.671-.547.713a.537.537,0,0,1-.563-.37,1.374,1.374,0,0,1,.031-1.14.159.159,0,0,1,.23-.049A.179.179,0,0,1,959.959-524.533Z" transform="translate(-372.635 -185.147)" fill="#244169"/>
      <path id="Path_32564" data-name="Path 32564" d="M608.18-656.946a1.271,1.271,0,0,1-.829.938.183.183,0,0,1-.271-.088c-.056-.12-.013-.2.112-.253a.911.911,0,0,0,.228-.127c.15-.121.392-.262.275-.46-.144-.245-.337,0-.494.075-.276.131-.543.322-.848.089a.478.478,0,0,1-.2-.521,1.292,1.292,0,0,1,.7-.821.2.2,0,0,1,.283.063.178.178,0,0,1-.079.272,1.761,1.761,0,0,0-.275.173c-.116.1-.25.223-.146.385.122.192.267.037.392-.025s.26-.166.4-.22A.524.524,0,0,1,608.18-656.946Z" transform="translate(-65.811 -69.497)" fill="#244169"/>
      <path id="Path_32565" data-name="Path 32565" d="M891.723-662.9c-.184-.088-.294-.173-.277-.362.054-.61-.255-.863-.837-.813-.182.016-.326-.052-.358-.2s.148-.184.265-.233c.462-.195.916-.411,1.389-.576.407-.142.6.071.494.463-.137.5-.334.99-.514,1.48A1.209,1.209,0,0,1,891.723-662.9Zm.15-1.643c-.208.036-.476-.015-.5.269-.006.067.138.208.218.213C891.916-664.047,891.786-664.365,891.873-664.547Z" transform="translate(-312.462 -63.432)" fill="#244169"/>
      <path id="Path_32566" data-name="Path 32566" d="M844.427-700.273c-.06-.064-.1-.149-.172-.174-.212-.081-.456-.438-.648-.079s.262.294.406.44c.128.13.511.088.322.431-.227.412-.344-.031-.464-.1-.934-.545-.935-.556-.421-1.567.112-.221.164-.645.411-.6a4.712,4.712,0,0,1,1.171.551c.03.016.033.121.019.176a.141.141,0,0,1-.2.1c-.122-.047-.235-.117-.359-.159-.181-.061-.4-.335-.54,0-.112.273.2.3.351.365C844.649-700.744,844.65-700.559,844.427-700.273Z" transform="translate(-271.537 -31.494)" fill="#244169"/>
      <path id="Path_32567" data-name="Path 32567" d="M596.823-640.969a.3.3,0,0,1-.281.22c-.646-.023-.874.316-.8.915.018.146-.009.277-.143.331-.227.092-.232-.138-.291-.251-.222-.425-.426-.859-.636-1.291-.194-.4-.026-.621.372-.55.556.1,1.095.289,1.641.441C596.773-641.13,596.846-641.093,596.823-640.969Zm-1.651-.161c.026.252.061.475.3.531.124.03.25-.161.232-.254C595.646-641.119,595.39-641.06,595.172-641.129Z" transform="translate(-55.785 -83.856)" fill="#244169"/>
      <path id="Path_32568" data-name="Path 32568" d="M845.846-327.665c-.065.27.417.6.091.737-.366.158-.394-.353-.516-.584-.139-.264-.505-.582-.25-.852.236-.25.542.136.826.2a2.445,2.445,0,0,1,.3.115c.029-.048.068-.082.066-.115-.013-.261-.464-.574-.132-.731.368-.174.394.35.511.58.136.266.521.579.253.856-.233.241-.549-.119-.831-.2-.083-.025-.168-.045-.253-.066-.044-.056-.093-.072-.141-.008A.705.705,0,0,0,845.846-327.665Z" transform="translate(-273.254 -355.315)" fill="#244169"/>
      <path id="Path_32569" data-name="Path 32569" d="M680.737-704.49c.149-.4-.192-.959.283-1.159.528-.223.664.432,1,.664a3.635,3.635,0,0,1,.523.5c.081.084.231.17.088.317a.26.26,0,0,1-.354.037.67.67,0,0,0-1.107.378c-.053.14-.117.251-.26.246-.242-.01-.161-.214-.168-.35C680.73-704.078,680.737-704.3,680.737-704.49Zm.922-.217a.559.559,0,0,0-.347-.349c-.155-.045-.128.137-.116.222.017.117-.123.346.156.317C681.463-704.527,681.616-704.538,681.659-704.706Z" transform="translate(-130.571 -28.22)" fill="#244169"/>
      <path id="Path_32570" data-name="Path 32570" d="M652.332-691.43a1.071,1.071,0,0,1-1.094-1.047,1.18,1.18,0,0,1,1.156-1.036c.107.011.231,0,.253.139a.21.21,0,0,1-.207.268,1.5,1.5,0,0,0-.2.016.6.6,0,0,0-.512.524.564.564,0,0,0,.292.61.645.645,0,0,0,.783-.134c.132-.124.245-.42.449-.2s-.069.388-.21.533A1.216,1.216,0,0,1,652.332-691.43Z" transform="translate(-104.966 -38.792)" fill="#244169"/>
      <path id="Path_32571" data-name="Path 32571" d="M633.488-344.7l-.182-.111a.617.617,0,0,1-.344-.812c.129-.354.422-.263.653-.212a.663.663,0,0,1,.554.708,1.157,1.157,0,0,1-.753.984c-.454.224-.643-.323-.987-.453-.107-.04-.036-.138.025-.2.1-.1.2-.071.29-.007C632.95-344.659,633.133-344.418,633.488-344.7Z" transform="translate(-88.587 -340.596)" fill="#244169"/>
      <path id="Path_32572" data-name="Path 32572" d="M696.585-314.7c.11-.259-.026-.351-.254-.408s-.424-.092-.482.233c-.023.132-.061.336-.284.269-.269-.08-.133-.271-.092-.428.088-.338.182-.674.27-1.012.03-.116.088-.206.216-.2.185.005.2.151.176.28-.059.264-.052.429.279.524.373.108.392-.127.473-.348.039-.107.1-.192.243-.145.167.056.169.173.13.312-.1.336-.186.673-.284,1.008-.04.137-.028.343-.248.317C696.439-314.33,696.564-314.538,696.585-314.7Z" transform="translate(-143.307 -366.324)" fill="#244169"/>
      <path id="Path_32573" data-name="Path 32573" d="M770.5-306.86c-.012-.131-.02-.262-.039-.391-.022-.153.023-.26.189-.276.141-.014.2.092.206.2.024.273.094.424.436.4.386-.031.321-.264.321-.5a.188.188,0,0,1,.2-.2c.138,0,.186.085.2.207.035.391.073.783.1,1.174.011.134,0,.274-.174.295s-.227-.1-.222-.245c.01-.309-.106-.4-.432-.385-.36.022-.375.2-.339.469.019.143,0,.27-.194.256-.173-.013-.2-.142-.206-.279Q770.522-306.5,770.5-306.86Z" transform="translate(-208.464 -373.801)" fill="#244169"/>
      <path id="Path_32574" data-name="Path 32574" d="M894.238-357.874a.336.336,0,0,1-.458.2c-.362-.1-.59-.059-.366.392a.168.168,0,0,1-.091.262.288.288,0,0,1-.349-.09c-.176-.222-.37-.432-.524-.667-.1-.147-.41-.254-.235-.468a1.374,1.374,0,0,1,.957-.634.474.474,0,0,1,.535.392A.662.662,0,0,0,894.238-357.874Zm-.873-.378c.018-.094-.085-.232-.233-.251a.37.37,0,0,0-.427.3.33.33,0,0,0,.3.36C893.176-357.827,893.3-357.977,893.365-358.252Z" transform="translate(-314.127 -329.312)" fill="#244169"/>
      <path id="Path_32575" data-name="Path 32575" d="M620.691-669.175a1.279,1.279,0,0,1-.971.961.19.19,0,0,1-.194-.136.157.157,0,0,1,.082-.216,2.051,2.051,0,0,0,.293-.146c.153-.11.427-.215.323-.428-.115-.233-.344-.049-.516.022-.282.118-.561.293-.852.025a.528.528,0,0,1-.137-.6,1.221,1.221,0,0,1,.74-.7.2.2,0,0,1,.275.1c.059.119,0,.2-.108.265a3.588,3.588,0,0,0-.388.239.213.213,0,0,0-.08.287c.066.1.185.1.294.049a4.361,4.361,0,0,1,.541-.239A.507.507,0,0,1,620.691-669.175Z" transform="translate(-76.7 -58.843)" fill="#244169"/>
      <path id="Path_32576" data-name="Path 32576" d="M798.081-715.26c-.332-.131-.61-.128-.656.365-.015.157-.164.183-.309.145-.176-.046-.168-.176-.138-.31.1-.449.213-.9.3-1.348.052-.262.19-.314.423-.242.1.032.232.014.32.067.244.147.787-.039.73.343s-.473.064-.723.035c-.229-.027-.323.05-.365.257-.049.244.141.225.279.265.084.025.171.039.255.065.143.044.333.067.251.29C798.385-715.154,798.237-715.227,798.081-715.26Z" transform="translate(-231.477 -18.682)" fill="#244169"/>
      <path id="Path_32577" data-name="Path 32577" d="M879.744-346.625a1.016,1.016,0,0,1-.77-.9,1.293,1.293,0,0,1,1.068-.9.891.891,0,0,1,.886.862A1.057,1.057,0,0,1,879.744-346.625Zm.305-.358c.256-.087.5-.214.48-.532a.491.491,0,0,0-.547-.522.46.46,0,0,0-.49.5C879.493-347.193,879.725-347.045,880.049-346.983Z" transform="translate(-302.675 -338.382)" fill="#244169"/>
      <path id="Path_32578" data-name="Path 32578" d="M714.246-311.1c-.271,0-.509-.133-.573.073-.075.244.2.214.349.278.122.052.362-.01.3.231-.04.169-.214.082-.336.084-.159,0-.4-.131-.447.1-.059.3.243.226.408.286.146.053.428-.025.381.227s-.292.117-.44.072c-.276-.083-.759.057-.787-.286a4.3,4.3,0,0,1,.257-1.4c.043-.16,1.18-.013,1.19.155C714.572-310.925,714.305-311.1,714.246-311.1Z" transform="translate(-158.671 -370.441)" fill="#244169"/>
      <path id="Path_32579" data-name="Path 32579" d="M913.828-373.311a.247.247,0,0,1-.254.165c-.517-.04-.679.27-.681.713,0,.145-.009.282-.161.307-.118.019-.188-.105-.214-.213-.122-.508-.807-1.039-.4-1.456.359-.369.993.175,1.513.278C913.724-373.5,913.852-373.465,913.828-373.311Z" transform="translate(-331.34 -316.253)" fill="#244169"/>
      <path id="Path_32580" data-name="Path 32580" d="M728.03-307.072c-.03.05-.048.129-.09.144a.239.239,0,0,1-.289-.092c-.309-.473-.655-.483-1.048-.1a.219.219,0,0,1-.3,0c-.085-.067-.018-.158.023-.227.232-.394.462-.791.707-1.176.133-.209.388-.234.477-.035C727.725-308.091,727.86-307.581,728.03-307.072Z" transform="translate(-170.1 -372.872)" fill="#244169"/>
      <path id="Path_32581" data-name="Path 32581" d="M586.548-391.134c-.037-.053-.074-.1-.105-.152-.647-1.056-.646-1.055.388-1.755.143-.1.277-.27.43-.041.191.285.562.495.539.861-.012.181-.22.068-.335-.057-.135-.146-.21-.507-.454-.357-.286.176.043.363.138.529.063.11.094.216-.008.284s-.184-.038-.264-.113c-.128-.12-.206-.44-.433-.266-.276.212.055.379.157.53C586.741-391.463,586.834-391.305,586.548-391.134Z" transform="translate(-48.327 -299.519)" fill="#244169"/>
      <path id="Path_32582" data-name="Path 32582" d="M824.726-317.79c-.506.359-.734-.224-1.067-.158-.262.184.152.627-.247.658-.332.026-.249-.394-.372-.6a.99.99,0,0,1-.114-.305c-.044-.222-.311-.521-.06-.652.381-.2.255.365.5.449.3-.214.192-.766.676-.867.173.347-.366.614-.141.893A3.736,3.736,0,0,0,824.726-317.79Z" transform="translate(-253.873 -363.7)" fill="#244169"/>
      <path id="Path_32583" data-name="Path 32583" d="M657.995-329.751c.02-.548.476-1.041.906-.988a.67.67,0,0,1,.657.751c-.022.5-.5,1.008-.908.953A.686.686,0,0,1,657.995-329.751Zm.676.349a.711.711,0,0,0,.484-.624c.038-.192-.048-.382-.264-.353-.326.043-.44.321-.492.608A.29.29,0,0,0,658.671-329.4Z" transform="translate(-110.832 -353.738)" fill="#244169"/>
      <path id="Path_32584" data-name="Path 32584" d="M558.334-575.077c-.021.242-.1.349-.343.261-.266-.1-.542-.169-.81-.262s-.513-.182-.594.222c-.03.148-.13.231-.287.15-.122-.063-.1-.172-.066-.283q.192-.592.377-1.187a.2.2,0,0,1,.188-.15c.1-.009.2.058.172.144-.233.766.448.6.788.788C557.954-575.287,558.249-575.347,558.334-575.077Z" transform="translate(-22.462 -140.533)" fill="#244169"/>
      <path id="Path_32585" data-name="Path 32585" d="M695.99-712.939c-.01.058-.008.095-.018.1-.895.333-.23.908-.205,1.377.009.179.2.386-.108.475s-.294-.176-.35-.349-.1-.381-.16-.566c-.093-.268-.1-.655-.577-.452a.187.187,0,0,1-.257-.133c-.042-.132.031-.2.149-.24.418-.124.836-.248,1.256-.365A.2.2,0,0,1,695.99-712.939Z" transform="translate(-142.352 -21.786)" fill="#244169"/>
      <path id="Path_32586" data-name="Path 32586" d="M909.542-654.45a2.064,2.064,0,0,1-.164.334.143.143,0,0,1-.228,0c-.338-.465-.544-.1-.824.088s-.509.8-.83.451.311-.52.506-.776.648-.406.2-.811a.139.139,0,0,1,.021-.225c.048-.03.14-.065.167-.043C908.789-655.1,909.183-654.756,909.542-654.45Z" transform="translate(-327.36 -71.854)" fill="#244169"/>
      <path id="Path_32587" data-name="Path 32587" d="M960.526-541.618c0,.124.058.276-.122.326-.16.044-.255-.033-.261-.195-.016-.489-.359-.312-.619-.312-.36,0-.958.334-1.018-.076-.069-.467.586-.287.925-.361s.677-.059.567-.562a.147.147,0,0,1,.144-.18.2.2,0,0,1,.219.191C960.418-542.4,960.471-542.008,960.526-541.618Z" transform="translate(-371.719 -169.484)" fill="#244169"/>
      <path id="Path_32588" data-name="Path 32588" d="M810.38-312.664c-.233-.207-.486-.092-.709-.139-.239-.05-.422-.169-.437-.418a.552.552,0,0,1,.4-.54c.223-.094.5-.212.682-.034s-.029.232-.192.252c-.185.022-.462,0-.414.27.036.211.3.1.455.111.277.023.539.064.595.393a.5.5,0,0,1-.3.534,1.049,1.049,0,0,1-.883.091.125.125,0,0,1-.056-.1.156.156,0,0,1,.167-.16C809.948-312.408,810.205-312.4,810.38-312.664Z" transform="translate(-242.131 -368.371)" fill="#244169"/>
      <path id="Path_32589" data-name="Path 32589" d="M595.288-380.837c-.148.213.03.371.1.539.114.262.177.519-.115.69a.553.553,0,0,1-.714-.136,2.232,2.232,0,0,1-.3-.424c-.064-.109-.142-.247.029-.332.129-.064.189.047.247.141a1.912,1.912,0,0,0,.218.322.268.268,0,0,0,.221.081c.14-.053.081-.172.037-.271-.018-.04-.043-.077-.058-.117-.112-.3-.315-.632.086-.849.479-.259.66.269.967.447.1.059.081.3-.058.385-.175.105-.2-.1-.267-.193C595.583-380.69,595.513-380.868,595.288-380.837Z" transform="translate(-55.437 -309.877)" fill="#244169"/>
      <path id="Path_32590" data-name="Path 32590" d="M645.174-337.032c.05.267.516.26.294.536-.156.194-.334-.1-.5-.162a2.222,2.222,0,0,1-.34-.2c-.09-.055-.221-.085-.21-.221.013-.16.153-.193.28-.226s.257-.055.383-.093c.2-.061.5-.027.557-.274.075-.327-.25-.276-.437-.349a.177.177,0,0,1-.133-.2c.028-.144.156-.146.259-.13a.766.766,0,0,1,.732.562c.077.372-.172.555-.507.641C645.421-337.114,645.3-337.07,645.174-337.032Z" transform="translate(-99.04 -347.128)" fill="#244169"/>
      <path id="Path_32591" data-name="Path 32591" d="M928.67-621.2a3.725,3.725,0,0,1-.688-.99c-.154-.224.052-.3.193-.393.368-.233.739-.46,1.109-.688.138-.084.271-.143.39.038s.015.275-.13.359c-.113.065-.222.138-.336.2-.464.257-.985.484-.386,1.118C928.953-621.413,928.888-621.269,928.67-621.2Z" transform="translate(-345.176 -99.71)" fill="#244169"/>
      <path id="Path_32592" data-name="Path 32592" d="M868.532-340.755a3.228,3.228,0,0,0-.41.2c-.131.092-.386.138-.287.367.127.293.316.087.484.01.124-.056.271-.238.381-.015.078.159-.1.222-.208.275-.261.135-.373.293-.17.564a.192.192,0,0,1-.043.289c-.154.107-.237-.014-.31-.127-.167-.258-.312-.532-.5-.774-.223-.289-.218-.493.134-.658a.781.781,0,0,0,.3-.239C868.178-341.249,868.347-341.033,868.532-340.755Z" transform="translate(-292.559 -344.771)" fill="#244169"/>
      <path id="Path_32593" data-name="Path 32593" d="M787.049-308.721c.344-.194.233-.816.585-.666.323.137-.1.5-.146.766a1.986,1.986,0,0,0-.073.7.184.184,0,0,1-.162.236.185.185,0,0,1-.226-.178c-.021-.438-.363-.676-.59-.988-.076-.1-.308-.2-.118-.36.144-.125.28,0,.387.117S786.939-308.841,787.049-308.721Z" transform="translate(-222.174 -372.258)" fill="#244169"/>
      <path id="Path_32594" data-name="Path 32594" d="M919.9-382.9c.171.128.37.261.549.416.291.253.559.431.808-.046.057-.11.158-.246.306-.142s.048.241-.044.324c-.232.21-.341.747-.643.632a4.238,4.238,0,0,1-1.185-.9C919.592-382.7,919.716-382.847,919.9-382.9Z" transform="translate(-337.996 -308.457)" fill="#244169"/>
      <path id="Path_32595" data-name="Path 32595" d="M930.007-393.263a4.267,4.267,0,0,1-.635.816c-.19.153-.359-.155-.539-.252a2.941,2.941,0,0,1-.486-.327c-.133-.111-.433-.171-.282-.421.163-.269.329-.009.483.072a1.137,1.137,0,0,1,.215.146c.333.291.645.441.891-.1.043-.093.121-.2.25-.115C929.951-393.412,929.966-393.339,930.007-393.263Z" transform="translate(-345.261 -299.197)" fill="#244169"/>
      <path id="Path_32596" data-name="Path 32596" d="M606.571-371.375c-.18.249-.349.507-.544.743-.1.121-.228.327-.425.143-.217-.2.06-.281.133-.414.183-.332.921-.459.4-1.062-.013-.015.056-.146.089-.147a.342.342,0,0,1,.227.071c.222.212.433.436.643.659.082.086.244.162.115.315s-.225,0-.325-.067c-.054-.036-.109-.069-.164-.1Z" transform="translate(-65.275 -317.823)" fill="#244169"/>
      <path id="Path_32597" data-name="Path 32597" d="M953.645-569.575c.043.185-.094.216-.22.253l-1.373.4c-.16.046-.306.054-.349-.158-.032-.157.038-.239.189-.281.48-.135.959-.271,1.436-.418C953.534-569.845,953.607-569.746,953.645-569.575Z" transform="translate(-365.811 -146.197)" fill="#244169"/>
      <path id="Path_32598" data-name="Path 32598" d="M555.8-557.336c-.016.2-.139.257-.316.214-.485-.12-.967-.248-1.452-.365-.164-.04-.2-.135-.177-.284s.083-.243.258-.2c.5.136,1.007.268,1.51.4C555.729-557.533,555.816-557.473,555.8-557.336Z" transform="translate(-20.411 -156.459)" fill="#244169"/>
      <path id="Path_32599" data-name="Path 32599" d="M744.6-306.184c.128-.228-.177-.787.227-.776s.173.541.155.823c-.027.42.126.558.513.546.121,0,.3-.021.285.169s-.186.137-.313.144C744.571-305.227,744.536-305.261,744.6-306.184Z" transform="translate(-186.001 -374.385)" fill="#244169"/>
      <path id="Path_32600" data-name="Path 32600" d="M564.157-584.526c-.052.208-.162.289-.38.2-.46-.193-.924-.374-1.385-.564a.2.2,0,0,1-.113-.315.2.2,0,0,1,.261-.131c.5.2,1.006.4,1.506.61A.157.157,0,0,1,564.157-584.526Z" transform="translate(-27.705 -132.696)" fill="#244169"/>
      <path id="Path_32601" data-name="Path 32601" d="M668.5-697.945c.009.2-.07.266-.18.3a.2.2,0,0,1-.261-.124q-.338-.7-.679-1.406c-.054-.112-.053-.212.067-.272.1-.048.239-.109.3,0C668.022-698.934,668.274-698.409,668.5-697.945Z" transform="translate(-118.953 -33.591)" fill="#244169"/>
      <path id="Path_32602" data-name="Path 32602" d="M713.884-713.565c0,.095.054.239-.132.286s-.283-.036-.322-.22c-.1-.471-.21-.94-.309-1.411-.036-.169,0-.306.21-.327.169-.017.235.086.264.225C713.691-714.541,713.784-714.068,713.884-713.565Z" transform="translate(-158.679 -19.934)" fill="#244169"/>
      <path id="Path_32603" data-name="Path 32603" d="M755.576-306.429a2.85,2.85,0,0,1,1.547-.067c-.8.21-.563.8-.579,1.282,0,.134,0,.283-.175.3-.225.023-.222-.158-.231-.31a2.062,2.062,0,0,1,0-.327C756.181-305.97,756.132-306.327,755.576-306.429Z" transform="translate(-195.548 -374.724)" fill="#244169"/>
      <path id="Path_32604" data-name="Path 32604" d="M626.827-353.419c.672.262.915.48.448.932a6.805,6.805,0,0,0-.543.645c-.094.117-.205.174-.33.077-.146-.113-.045-.231.033-.333a3.537,3.537,0,0,1,.332-.4C627-352.719,627.123-352.958,626.827-353.419Z" transform="translate(-83.339 -334.051)" fill="#244169"/>
      <path id="Path_32605" data-name="Path 32605" d="M838.785-320.161c.016.129-.022.2-.11.24-.113.049-.212.035-.264-.091-.165-.4-.331-.8-.489-1.2a.167.167,0,0,1,.124-.248c.07-.011.2.026.219.077C838.452-320.973,838.622-320.551,838.785-320.161Z" transform="translate(-267.021 -361.792)" fill="#244169"/>
      <path id="Path_32606" data-name="Path 32606" d="M632.126-657.463c.682-1.886,1.339-3.7,1.992-5.509.788-2.188,1.6-4.367,2.342-6.572.227-.679.683-.508,1.136-.552a.657.657,0,0,1,.8.547c.718,2.165,1.494,4.311,2.214,6.476a.766.766,0,0,0,.873.637c2.679-.035,5.359-.029,8.039-.031a7.436,7.436,0,0,1,5.726,2.031,11.543,11.543,0,0,1,2.967,6,21.328,21.328,0,0,1-1.232,12.969,11.555,11.555,0,0,1-2.834,4,7.189,7.189,0,0,1-3.5,1.719c-.5.1-.522.289-.375.691.361.989.686,1.992,1.048,2.981.132.361.133.524-.331.468a17.278,17.278,0,0,0-4.4-.014c-.366.05-.5-.08-.584-.421-.254-.976-.562-1.938-.82-2.914a.546.546,0,0,0-.644-.473c-1.032.024-2.065-.016-3.1.018-.459.015-.587-.109-.584-.577.02-3.229-.011-6.457.024-9.686.007-.612-.186-.72-.74-.714q-3.492.043-6.985,0c-.575-.007-.689.113-.547.691.857,3.479-.594,7.474-3.467,9.113a2.993,2.993,0,0,0-1.59,2.241c-.16.795-.406,1.572-.6,2.36-.057.234-.1.425-.411.369a9.616,9.616,0,0,0-3.642.1c.388-1.056.727-2,1.082-2.931.044-.116.086-.234.131-.347.2-.49.064-.637-.467-.629-1.669.026-3.338-.007-5.008.009-.411,0-.562-.085-.561-.541q.022-12.981.006-25.961c0-.313,0-.549.436-.54,2.678.056,5.36-.1,8.036.109a8.264,8.264,0,0,1,2.555.593,4.45,4.45,0,0,1,2.8,3.481c.041.216.075.433.114.649A1.137,1.137,0,0,0,632.126-657.463Zm23.127,7.862a23.179,23.179,0,0,0-.546-5.426,6.119,6.119,0,0,0-5.451-5.133,15.469,15.469,0,0,0-3.744-.085c-.469.034-.572.2-.57.64.017,2.855.01,5.71.006,8.565a2.5,2.5,0,0,0,.141.837c1.375,3.958,2.753,7.916,4.107,11.881.156.456.355.489.758.347a6.738,6.738,0,0,0,3.944-3.836A18.83,18.83,0,0,0,655.253-649.6Zm-8.142,11.92c.263,0,.527,0,.79,0,.755,0,.754,0,.51-.707q-1.465-4.227-2.928-8.454-3.815-11-7.634-22c-.073-.21-.064-.5-.41-.508-.31-.008-.33.232-.4.432q-3.449,9.561-6.907,19.118a.567.567,0,0,0,.28.8,4.1,4.1,0,0,1,1.375,1.394,1,1,0,0,0,1,.536c2.9-.025,5.8,0,8.693-.026a.723.723,0,0,1,.83.6c.741,2.318,1.523,4.623,2.273,6.938C645.175-637.737,645.163-637.733,647.112-637.682Zm-18.848.794c.253-.124.354-.166.447-.222a4.074,4.074,0,0,0,.382-.258,7.8,7.8,0,0,0,2.983-7.087,4.96,4.96,0,0,0-3.449-4.675,11.564,11.564,0,0,0-1.531-.376c-.233-.052-.461-.042-.477-.4-.015-.32.142-.4.385-.5a6.516,6.516,0,0,0,4.281-7.026,3.952,3.952,0,0,0-3.27-3.923,7.844,7.844,0,0,0-1.162-.22c-2.541-.272-5.09-.07-7.635-.141-.421-.012-.386.239-.386.509q0,2.009,0,4.018,0,10.111,0,20.223c0,.975-.088.817.855.823,1.361.009,2.723.006,4.084.007.132,0,.264-.01.4,0,.351.021.391-.263.421-.483.049-.356-.259-.209-.41-.211-.944-.015-1.889-.02-2.833,0-.368.008-.491-.106-.49-.486q.019-5.8,0-11.594c0-.368.1-.5.482-.5a31.532,31.532,0,0,1,3.29.1c2.064.258,3.857,1,4.714,3.063a7.453,7.453,0,0,1,.042,5.834C628.942-639.307,628.676-638.159,628.264-636.888Zm13.468-9.03-.146.04q0,4.607,0,9.215c0,.314,0,.537.438.531,2.108-.027,4.217.017,6.323-.042a7.734,7.734,0,0,0,6.308-2.87,14.154,14.154,0,0,0,1.771-2.92,20.233,20.233,0,0,0,1.487-9.013,15.387,15.387,0,0,0-1.6-6.73,6.644,6.644,0,0,0-4.444-3.81,11.355,11.355,0,0,0-2.554-.215q-3.261.01-6.521.019c-1.293,0-1.426.166-1.17,1.469a3.477,3.477,0,0,0,.137.439q1.084,3.175,2.175,6.347c.036.1.054.264.278.275,0-.264,0-.522,0-.781,0-2.108,0-4.215,0-6.323,0-.255-.126-.589.353-.62a19.507,19.507,0,0,1,5.313.106,6.552,6.552,0,0,1,5.081,4.21,17.606,17.606,0,0,1,1,6.2,20.506,20.506,0,0,1-1.253,8.532,7.31,7.31,0,0,1-5.175,4.734,13.836,13.836,0,0,1-4.392.02c-.893-.08-.886-.093-.938-1.017a2.708,2.708,0,0,0-.126-.641c-.41-1.319-.818-2.638-1.248-3.951C642.478-643.781,642.1-644.847,641.732-645.917Zm-20.121,2.805c0,1.666.014,3.333-.01,5-.006.434.124.566.554.548.81-.035,1.622-.023,2.433-.016a.626.626,0,0,0,.684-.466q1.457-4.084,2.942-8.159a.666.666,0,0,0-.106-.723,4.453,4.453,0,0,0-2.429-1.437,14.139,14.139,0,0,0-3.528-.3c-.441-.008-.555.134-.55.556C621.622-646.444,621.611-644.778,621.611-643.112Zm2.4,10.67a10.3,10.3,0,0,1,1.955.025c.224.028.364-.017.428-.274.231-.936.551-1.854.716-2.8a24.013,24.013,0,0,1,1.323-4.589,7.721,7.721,0,0,0,.719-3.769,3.132,3.132,0,0,0-.428-1.6Zm24.627-.05c.373.018.856.019,1.333.071.4.044.446-.083.315-.431q-.382-1.012-.7-2.045a.392.392,0,0,0-.482-.312c-.567.039-1.135.069-1.7.081-1.509.031-1.509.027-1.075,1.5.363,1.231.363,1.231,1.618,1.172ZM628.18-650.086c1.2.476,1.575.214,1.42-.954Z" transform="translate(-76.182 -59.118)" fill="#244169"/>
      <path id="Path_32607" data-name="Path 32607" d="M723.076-621.922l5.3,15.125h-2.384c-2.524,0-5.047-.006-7.571.006-.411,0-.6-.028-.423-.525q2.477-7.109,4.919-14.23C722.946-621.622,722.982-621.7,723.076-621.922Zm-.012,2.181c-1.385,4.011-2.694,7.825-4.026,11.632-.184.526-.046.62.469.615,2.37-.024,4.739-.01,7.109-.011.748,0,.748,0,.509-.682q-1.729-4.932-3.46-9.864C723.487-618.56,723.3-619.068,723.064-619.741Z" transform="translate(-162.87 -100.948)" fill="#244169"/>
      <path id="Path_32608" data-name="Path 32608" d="M639.148-595.817c0-1.622.013-3.245-.009-4.867-.006-.436.083-.629.571-.609a23.847,23.847,0,0,1,4.455.247,3.972,3.972,0,0,1,3.291,3.4,7.457,7.457,0,0,1-.077,3.132c-.609,2.481-2.552,3.963-5.432,4.128-.765.044-1.535,0-2.3.034-.426.02-.509-.153-.505-.536C639.158-592.528,639.148-594.173,639.148-595.817Zm.744.054c0,1.361.025,2.722-.013,4.081-.015.514.164.654.636.616.568-.046,1.141-.031,1.709-.077a4.691,4.691,0,0,0,4.627-4.716c.184-3-1.2-4.537-4.2-4.658-.723-.029-1.45.01-2.172-.032-.455-.027-.608.1-.6.573C639.909-598.572,639.891-597.167,639.892-595.762Z" transform="translate(-94.462 -118.856)" fill="#244169"/>
    </g>
  </g>
</svg>
