<svg xmlns="http://www.w3.org/2000/svg" width="45" height="45" viewBox="0 0 45 45">
  <g id="Group_36195" data-name="Group 36195" transform="translate(-64 -272)">
    <rect id="Rectangle_6643" data-name="Rectangle 6643" width="45" height="45" rx="10" transform="translate(64 272)" fill="#f4ae5c"/>
    <g id="Group_36061" data-name="Group 36061" transform="translate(74.036 281.601)">
      <path id="Path_32624" data-name="Path 32624" d="M-1264.292,532.971c.029-.042.058-.085.088-.127a.5.5,0,0,1,.571-.219.508.508,0,0,1,.389.5c.005.1,0,.192,0,.289v7.956c0,.579.156.738.726.738h13.73a8.092,8.092,0,0,1-1.415-5.357h-10.152a1.882,1.882,0,0,1-.288-.009.525.525,0,0,1-.445-.535.526.526,0,0,1,.457-.5,2.163,2.163,0,0,1,.289-.007h10.1v-1.891h-10.146c-.452,0-.7-.186-.7-.524s.245-.526.7-.526h10.16c.01-.386.263-.527.589-.625,1.2-.364,2.4-.743,3.6-1.117.124-.039.233-.062.232-.251-.009-2.206-.006-4.411-.007-6.617a.748.748,0,0,0-.021-.107h-.276c-.91,0-1.821,0-2.731,0a1.5,1.5,0,0,1-1.593-1.6q0-1.47,0-2.941a.442.442,0,0,0-.025-.083h-12.084c-.535,0-.7.168-.7.711q0,4.057,0,8.114a.629.629,0,0,1-.228.582c-.283.2-.568.107-.824-.268v-8.876a1.723,1.723,0,0,1,1.313-1.313h13.235c.113.094.234.18.337.283q2.184,2.178,4.367,4.358a.907.907,0,0,1,.287.7c-.008,2.188,0,4.376,0,6.563v.342a4.32,4.32,0,0,1,.621-.186,1.577,1.577,0,0,1,.658,0c1.847.561,3.687,1.144,5.531,1.715a.837.837,0,0,1,.546.407v5.672c-.016.075-.037.149-.048.225a7.683,7.683,0,0,1-5.226,6.526c-.316.12-.65.193-.976.287h-.315c-.057-.019-.113-.042-.172-.056a7.687,7.687,0,0,1-3.557-1.868.618.618,0,0,0-.462-.181q-4.568.008-9.137,0-2.678,0-5.356,0a1.5,1.5,0,0,1-1.249-.554,4.45,4.45,0,0,1-.392-.76Zm15.126.123c0,1.5,0,2.974,0,4.452a7.843,7.843,0,0,0,.043.785,6.708,6.708,0,0,0,5.058,5.807,1.037,1.037,0,0,0,.459.01,6.718,6.718,0,0,0,5.145-6.317c.024-1.513,0-3.027.01-4.54,0-.143-.034-.216-.18-.261-1.669-.515-3.336-1.038-5-1.553a.549.549,0,0,0-.3-.013C-1245.673,532-1247.406,532.544-1249.166,533.094Zm-.213-12.881c0,.762,0,1.493,0,2.225,0,.394.161.552.56.553q1.009,0,2.018,0a1.733,1.733,0,0,0,.183-.019Z" transform="translate(1264.292 -518.371)" fill="#fff"/>
      <path id="Path_32625" data-name="Path 32625" d="M-1264.292,744.743c.029-.042.057-.084.088-.125a.5.5,0,0,1,.59-.214.491.491,0,0,1,.368.509.491.491,0,0,1-.368.484.5.5,0,0,1-.59-.214c-.03-.041-.058-.083-.088-.125Z" transform="translate(1264.292 -732.506)" fill="#fff"/>
      <path id="Path_32626" data-name="Path 32626" d="M-1141.583,618.428c.478,0,.959,0,1.44,0a.538.538,0,0,1,.616.608q0,1.181,0,2.363a.535.535,0,0,1-.6.6c-.489,0-.978,0-1.5,0,0,.486,0,.955,0,1.424,0,.5-.176.676-.681.677q-1.116,0-2.231,0c-.469,0-.656-.186-.658-.648s0-.943,0-1.452h-1.34c-.613,0-.761-.147-.761-.756,0-.726,0-1.453,0-2.179,0-.447.191-.635.642-.636.472,0,.945,0,1.458,0v-.389c0-.385,0-.77,0-1.155a.51.51,0,0,1,.51-.552q1.273-.014,2.546,0a.509.509,0,0,1,.511.551c.008.5.007,1,.01,1.5C-1141.619,618.385-1141.61,618.392-1141.583,618.428Zm-4.648,1.05v1.471h1.4c.506,0,.681.174.682.674q0,.7,0,1.408h1.47c0-.472,0-.926,0-1.38,0-.537.166-.7.707-.7h1.373v-1.471h-1.121c-.885,0-.959-.073-.959-.95v-1.136h-1.47c0,.5,0,.989,0,1.477a.54.54,0,0,1-.615.609C-1145.245,619.48-1145.725,619.478-1146.232,619.478Z" transform="translate(1153.444 -611.18)" fill="#fff"/>
      <path id="Path_32627" data-name="Path 32627" d="M-1199.6,905.416h-3.015c-.4,0-.643-.207-.637-.533s.245-.516.629-.516q3.041,0,6.083,0c.4,0,.643.209.636.535s-.244.514-.629.515Q-1198.063,905.417-1199.6,905.416Z" transform="translate(1206.455 -884.093)" fill="#fff"/>
      <path id="Path_32628" data-name="Path 32628" d="M-956.306,792.282c0-.6,0-1.19,0-1.785a.558.558,0,0,1,.464-.635c1.2-.375,2.4-.752,3.605-1.115a.833.833,0,0,1,.456-.005c1.213.366,2.422.745,3.631,1.124a.554.554,0,0,1,.456.64c0,1.112.008,2.223,0,3.335a5.664,5.664,0,0,1-4,5.335,1.112,1.112,0,0,1-.608,0,5.667,5.667,0,0,1-4-5.394C-956.308,793.28-956.306,792.781-956.306,792.282Zm7.609.247-.047,0c0-.5-.009-1,0-1.5a.28.28,0,0,0-.237-.329c-.953-.287-1.9-.591-2.853-.882a.552.552,0,0,0-.3-.008q-1.49.456-2.974.932a.24.24,0,0,0-.141.17,31.029,31.029,0,0,0,.063,3.459,4.382,4.382,0,0,0,3.032,3.742.5.5,0,0,0,.324,0,4.441,4.441,0,0,0,2.965-3.393A16.243,16.243,0,0,0-948.7,792.529Z" transform="translate(972.482 -774.514)" fill="#fff"/>
      <path id="Path_32629" data-name="Path 32629" d="M-914.586,857.92c.614-.617,1.179-1.188,1.748-1.755a.533.533,0,0,1,.807-.027.5.5,0,0,1-.018.711q-1.065,1.084-2.148,2.151a.509.509,0,0,1-.75,0q-.6-.583-1.186-1.185a.513.513,0,0,1-.02-.75.517.517,0,0,1,.769.024C-915.118,857.35-914.866,857.627-914.586,857.92Z" transform="translate(934.582 -838.237)" fill="#fff"/>
    </g>
  </g>
</svg>
