<svg xmlns="http://www.w3.org/2000/svg" width="45" height="45" viewBox="0 0 45 45">
  <g id="Group_36198" data-name="Group 36198" transform="translate(-265 -271)">
    <rect id="Rectangle_6643" data-name="Rectangle 6643" width="45" height="45" rx="10" transform="translate(265 271)" fill="#f57c85"/>
    <path id="Path_32646" data-name="Path 32646" d="M-521.576,556.314a.648.648,0,0,1-.648.314q-1.3-.016-2.608,0a.414.414,0,0,0-.308.145,23.911,23.911,0,0,1-4.7,5.571,39.642,39.642,0,0,1-6.44,4.822.467.467,0,0,1-.519.024c-.512-.3-1.046-.562-1.531-.9a39.113,39.113,0,0,1-8.2-7.353c-.4-.5-.767-1.029-1.132-1.556a.406.406,0,0,0-.38-.21c-1.057.008-2.114,0-3.172,0-.481,0-.717-.162-.707-.479s.225-.447.7-.448h2.869c-.107-.239-.2-.448-.295-.659a8.821,8.821,0,0,1-.746-4.357,6.919,6.919,0,0,1,5.819-6.081,7.746,7.746,0,0,1,3.807.489,13.693,13.693,0,0,1,2.963,1.468c.163.111.263.043.394-.039a14.213,14.213,0,0,1,4.222-1.814,6.849,6.849,0,0,1,8.127,4.934,8.085,8.085,0,0,1-.317,4.828c-.072.2-.155.405-.232.608a.527.527,0,0,0-.008.1h2.416a.63.63,0,0,1,.633.348Zm-9.894-1.2c.3-.447.6-.829.841-1.248.294-.523.812-.493,1.075.047a18.224,18.224,0,0,0,.94,1.61.447.447,0,0,0,.311.193c.81.016,1.62.014,2.43,0a.353.353,0,0,0,.264-.157,8.6,8.6,0,0,0,.87-3.357,5.925,5.925,0,0,0-7.081-6.049,12.464,12.464,0,0,0-4.387,1.932c-.348.23-.436.22-.8.013-.78-.441-1.557-.895-2.366-1.278a7.275,7.275,0,0,0-3.847-.759,5.942,5.942,0,0,0-5.258,5.8,8.883,8.883,0,0,0,1.061,4.114.391.391,0,0,0,.41.246q2.015-.013,4.03,0a.391.391,0,0,0,.409-.249c.627-1.252,1.267-2.5,1.9-3.747.072-.141.148-.279.216-.421a.469.469,0,0,1,.488-.309.472.472,0,0,1,.415.367c.017.046.036.092.054.138q1.342,3.43,2.683,6.86c.037.1.082.188.144.329.079-.266.142-.473.2-.681q1.214-4.191,2.433-8.381a.889.889,0,0,1,.223-.4c.275-.247.65-.076.78.346q.659,2.134,1.312,4.27C-531.64,554.588-531.562,554.828-531.469,555.119Zm-15.217,2.062a2.434,2.434,0,0,0,.16.269c.674.826,1.308,1.689,2.035,2.466a41.1,41.1,0,0,0,7.677,6.253.321.321,0,0,0,.416-.008,48.146,48.146,0,0,0,5.2-3.877,24.83,24.83,0,0,0,4.819-5.355c.055-.086.1-.178.175-.3-.833,0-1.612-.011-2.391.005a.684.684,0,0,1-.693-.391c-.262-.482-.554-.947-.855-1.453-.352.515-.683.992-1.007,1.475-.144.214-.3.4-.592.356s-.357-.28-.427-.509q-.513-1.668-1.025-3.337c-.1-.323-.2-.644-.321-1.021-.043.127-.067.191-.086.256l-2.139,7.326c-.141.483-.28.966-.423,1.448a.466.466,0,0,1-.442.377.477.477,0,0,1-.48-.329c-.026-.064-.05-.129-.075-.193q-1.4-3.583-2.8-7.165c-.04-.1-.086-.2-.148-.346-.622,1.227-1.23,2.4-1.811,3.586a.763.763,0,0,1-.79.478c-1.205-.016-2.41-.006-3.616-.006Z" transform="translate(824.253 -262.673)" fill="#fff"/>
  </g>
</svg>
