<svg xmlns="http://www.w3.org/2000/svg" xmlns:xlink="http://www.w3.org/1999/xlink" width="26.828" height="19.416" viewBox="0 0 26.828 19.416">
  <defs>
    <linearGradient id="linear-gradient" x1="3.584" y1="-10.362" x2="4.963" y2="-10.916" gradientUnits="objectBoundingBox">
      <stop offset="0" stop-color="#f7b261"/>
      <stop offset="0.244" stop-color="#f9cc62"/>
      <stop offset="0.501" stop-color="#fae163"/>
      <stop offset="0.754" stop-color="#fbed64"/>
      <stop offset="1" stop-color="#fcf265"/>
    </linearGradient>
    <linearGradient id="linear-gradient-2" x1="6.777" y1="-14.91" x2="9.429" y2="-15.686" xlink:href="#linear-gradient"/>
    <linearGradient id="linear-gradient-3" x1="4.738" y1="-19.02" x2="6.679" y2="-20.028" xlink:href="#linear-gradient"/>
    <clipPath id="clip-path">
      <path id="Path_32620" data-name="Path 32620" d="M296.232,300.764H278.7s-3.81-1.418-3.81-3.166V284.514a3.166,3.166,0,0,1,3.165-3.166h19.887c1.748,0,3.776,1.418,3.776,3.166v12.023Z" transform="translate(-274.894 -281.348)" fill="none"/>
    </clipPath>
    <radialGradient id="radial-gradient" cx="0.5" cy="0.5" r="1.015" gradientTransform="matrix(-0.492, 0.483, -0.03, -0.096, -6.64, -116.999)" gradientUnits="objectBoundingBox">
      <stop offset="0.007" stop-color="#ff0"/>
      <stop offset="0.093" stop-color="#e5e500"/>
      <stop offset="0.277" stop-color="#a2a203"/>
      <stop offset="0.505" stop-color="#484807"/>
      <stop offset="0.915" stop-color="#00000a"/>
    </radialGradient>
    <radialGradient id="radial-gradient-2" cx="0.5" cy="0.5" r="1.026" gradientTransform="matrix(-0.487, 0.483, -0.019, -0.063, -7.518, -147.237)" xlink:href="#radial-gradient"/>
  </defs>
  <g id="Group_36060" data-name="Group 36060" transform="translate(-274.894 -281.348)">
    <path id="Path_32613" data-name="Path 32613" d="M296.508,300.837H278.366a3.165,3.165,0,0,1-3.166-3.165V284.823a3.165,3.165,0,0,1,3.166-3.166h20.261a3.165,3.165,0,0,1,3.166,3.166v12Z" transform="translate(-0.189 -0.191)" fill="url(#linear-gradient)"/>
    <g id="Group_36056" data-name="Group 36056" transform="translate(275.012 281.466)" opacity="0.48">
      <path id="Path_32614" data-name="Path 32614" d="M289.037,281.657H278.369a3.165,3.165,0,0,0-3.166,3.166v10.525l.117-6.031Z" transform="translate(-275.203 -281.657)" fill="url(#linear-gradient-2)"/>
      <path id="Path_32615" data-name="Path 32615" d="M301.8,284.823a3.166,3.166,0,0,0-3.166-3.166h-9.594l-13.717,7.66-.117,6.031v2.324a3.164,3.164,0,0,0,1.674,2.792L301.8,286.548Z" transform="translate(-275.203 -281.657)" fill="#fff" opacity="0.35"/>
      <path id="Path_32616" data-name="Path 32616" d="M304.922,314.738l9.272-5.177v-5.376l-18.9,10.553Z" transform="translate(-287.602 -295.558)" fill="url(#linear-gradient-3)"/>
      <path id="Path_32617" data-name="Path 32617" d="M304.922,314.738l9.272-5.177v-5.376l-18.9,10.553Z" transform="translate(-287.602 -295.558)" fill="#fff" opacity="0.35"/>
    </g>
    <g id="Group_36058" data-name="Group 36058" transform="translate(274.894 281.348)">
      <g id="Group_36057" data-name="Group 36057" transform="translate(0)" clip-path="url(#clip-path)">
        <path id="Path_32618" data-name="Path 32618" d="M190.852,283.776c-1.472-2.671,17.094-15.741,41.467-29.193s45.325-22.193,46.8-19.523-17.094,15.741-41.467,29.194S192.324,286.446,190.852,283.776Z" transform="translate(-222.984 -252.489)" opacity="0.41" fill="url(#radial-gradient)" style="mix-blend-mode: screen;isolation: isolate"/>
        <path id="Path_32619" data-name="Path 32619" d="M236.659,309.579c-.762-1.377,14.029-11,33.034-21.49s35.029-17.878,35.79-16.5-14.029,11-33.034,21.491S237.419,310.956,236.659,309.579Z" transform="translate(-251.283 -275.223)" opacity="0.41" fill="url(#radial-gradient-2)" style="mix-blend-mode: screen;isolation: isolate"/>
      </g>
    </g>
    <g id="Group_36059" data-name="Group 36059" transform="translate(274.894 281.348)">
      <path id="Path_32621" data-name="Path 32621" d="M297.811,281.843H278.6a3.61,3.61,0,0,0-3.373,1.93l-.173.772a3.385,3.385,0,0,1,3.546-2.467h8.865v.927c-.036.005-.07.016-.105.021-.131.021-.261.047-.389.079-.064.016-.128.033-.191.052q-.176.051-.345.113c-.049.018-.1.033-.146.053-.149.06-.294.128-.434.2-.057.029-.111.062-.167.093q-.134.076-.261.161c-.045.029-.093.053-.137.084-.1.067-.186.138-.273.209l-.039.032c-.083.07-.163.143-.257.234l-.024.024c-.077.077-.151.158-.221.24l-.03.034a4.048,4.048,0,0,0-.411.591c-.016.027-.03.055-.044.084l-.025.048c-.031.06-.062.119-.09.18-.018.04-.034.08-.051.121l-.03.073h-8.74v.235h8.654c-.01.034-.014.069-.023.1a3.526,3.526,0,0,0-.082.356c-.009.049-.017.1-.024.149a3.7,3.7,0,0,0-.035.471v0h0a3.719,3.719,0,0,0,.819,2.311c.064.082.114.172.17.259h-9.479v.236h9.621a3.081,3.081,0,0,1,.172.391c.013.038.023.076.035.114a3.207,3.207,0,0,1,.089.357c.008.042.016.084.023.128a3.346,3.346,0,0,1,.038.479v.594a3.291,3.291,0,0,1-.04.494c-.01.06-.025.118-.038.177-.021.1-.044.2-.074.3-.021.067-.047.132-.073.2-.034.087-.07.172-.111.255-.032.064-.065.126-.1.188-.02.034-.044.065-.064.1h-9.477v.236h9.32l-.012.016a3.724,3.724,0,0,0-.819,2.312v0a3.508,3.508,0,0,0,.031.446c0,.021.006.041.01.062a3.583,3.583,0,0,0,.085.413c0,.007,0,.015,0,.022h-8.619v.236h8.686c.014.038.034.075.049.113.033.084.068.168.106.25.031.065.061.131.095.194.062.115.128.226.2.334.043.064.092.125.139.187s.1.125.149.186.1.114.149.168c.1.1.2.2.3.293.034.029.07.056.106.085q.148.121.307.231l.113.076a4.885,4.885,0,0,0,.951.475l.046.016a5.088,5.088,0,0,0,1.008.256v.733h.235v-.94l-.02,0-.166-.024-.082-.013-.037-.007c-.087-.014-.175-.029-.259-.048h0l-.088-.023a4.792,4.792,0,0,1-1.034-.378c-.022-.01-.042-.023-.064-.034-.126-.066-.248-.138-.366-.214-.034-.022-.069-.043-.1-.065a4.391,4.391,0,0,1-.356-.271c-.045-.038-.086-.078-.129-.118-.067-.062-.133-.126-.195-.192s-.1-.1-.146-.159c-.062-.074-.121-.15-.177-.227s-.117-.167-.17-.253c-.041-.067-.081-.133-.118-.2s-.064-.123-.093-.186a3.576,3.576,0,0,1-.133-.332l-.019-.06a3.565,3.565,0,0,1-.116-.484c0-.021-.007-.041-.01-.062a3.293,3.293,0,0,1-.038-.48,3.483,3.483,0,0,1,.77-2.164c.015-.019.024-.039.038-.059.026-.035.052-.071.077-.107h.006l.035-.052c.007-.011.011-.023.018-.033l.1-.151h-.011c.031-.054.06-.109.088-.164.044-.088.082-.178.118-.269.029-.074.06-.146.085-.222.033-.1.056-.208.078-.314.015-.067.034-.132.044-.2a3.524,3.524,0,0,0,.043-.538v-.594a3.455,3.455,0,0,0-.041-.507c-.008-.06-.021-.118-.033-.177-.022-.109-.048-.215-.08-.321-.019-.061-.037-.123-.059-.182-.035-.1-.077-.189-.121-.28h.015l-.09-.165,0,0,0-.007s-.005-.008-.008-.013l-.026-.048h-.005a3.531,3.531,0,0,0-.266-.406,3.482,3.482,0,0,1-.77-2.165v0a3.375,3.375,0,0,1,.045-.512c.006-.041.011-.081.02-.122a3.36,3.36,0,0,1,.121-.45,3.957,3.957,0,0,1,1.626-2.009c.078-.051.157-.1.239-.145.064-.036.129-.072.2-.1.12-.06.243-.116.368-.165.06-.024.122-.045.183-.066.112-.039.226-.075.342-.107.062-.017.126-.033.19-.048.129-.029.261-.053.393-.073l.1-.016.1-.013v-1.136h1.009v1.129l.1.012.024,0a4.865,4.865,0,0,1,.5.086c.047.01.094.022.14.034q.227.056.446.133l.056.018a4.778,4.778,0,0,1,.466.2c.041.02.08.042.121.063.13.069.257.144.379.226a4,4,0,0,1,1.451,1.674l.015.037c.036.081.066.164.095.247a3.347,3.347,0,0,1,.126.471c.007.038.012.075.018.113a3.386,3.386,0,0,1,.045.517v0a3.488,3.488,0,0,1-.764,2.159,3.345,3.345,0,0,0-.27.412h-.005l-.025.047c0,.005-.007.01-.01.015l-.093.174h.015c-.044.093-.086.188-.121.285-.016.047-.03.095-.045.142a3.247,3.247,0,0,0-.092.368c-.009.047-.019.094-.026.141a3.587,3.587,0,0,0-.041.516v.623a3.4,3.4,0,0,0,.553,1.874l.035.053h9.579v3.274H292.56l-.026.082a4.18,4.18,0,0,1-3.066,2.691,5.073,5.073,0,0,1-.652.116l-.1.012v.932h.235v-.723a5.1,5.1,0,0,0,.656-.13,4.417,4.417,0,0,0,3.128-2.745h7.993l-4.569,3.6h.354l5.112-3.936v-12.15C301.621,283.206,299.912,281.843,297.811,281.843Zm3.575,11.781h-9.452a3.166,3.166,0,0,1-.481-1.691v-.623a3.25,3.25,0,0,1,.039-.478c.006-.041.014-.082.021-.123a3.312,3.312,0,0,1,.091-.365c.011-.034.019-.069.031-.1a3.115,3.115,0,0,1,.168-.385h9.582Zm0-4h-9.441a3.06,3.06,0,0,1,.173-.265,3.719,3.719,0,0,0,.814-2.3h0v0a3.568,3.568,0,0,0-.036-.476c-.006-.047-.014-.093-.022-.14a3.743,3.743,0,0,0-.089-.384c-.007-.026-.01-.052-.018-.078h8.619Zm0-3.889h-8.705l0-.005-.033-.08,0-.009-.02-.049c-.008-.02-.016-.039-.025-.059-.029-.063-.061-.125-.1-.2l-.022-.044c-.012-.025-.025-.049-.039-.073-.058-.1-.122-.2-.19-.3l-.043-.057c-.057-.079-.117-.157-.181-.234l-.063-.071c-.061-.07-.124-.138-.19-.2l-.067-.064c-.057-.055-.117-.108-.178-.16l-.014-.013-.025-.021-.061-.05c-.053-.043-.114-.087-.173-.131l-.058-.043-.039-.029-.028-.019c-.025-.017-.053-.031-.079-.047q-.165-.108-.34-.2c-.041-.022-.08-.045-.122-.065a4.7,4.7,0,0,0-.464-.207c-.032-.013-.066-.023-.1-.034q-.2-.073-.413-.129c-.046-.013-.092-.025-.139-.036a5.3,5.3,0,0,0-.525-.1v-.92h8.864c1.971,0,3.575,1.258,3.575,2.8Z" transform="translate(-274.995 -281.653)" fill="#fff" opacity="0.61"/>
      <path id="Path_32622" data-name="Path 32622" d="M297.912,281.348H278.7c-2.1,0-3.81,1.363-3.81,3.039v13.339c0,1.676,1.709,3.039,3.81,3.039h17.528l5.49-4.227h0v-12.15C301.722,282.711,300.013,281.348,297.912,281.348Zm-22.783,3.039c0-1.546,1.6-2.8,3.575-2.8h8.864v.927c-.036,0-.07.015-.1.021-.132.022-.262.048-.389.079-.064.016-.128.034-.191.052-.118.033-.232.072-.345.113-.049.018-.1.033-.145.052-.15.06-.295.128-.435.2-.056.029-.111.061-.167.093-.089.051-.176.1-.262.161-.045.029-.093.054-.137.084-.1.067-.187.137-.273.209l-.04.032c-.083.071-.163.144-.257.235l-.024.023c-.077.078-.151.158-.221.24l-.03.034a4.019,4.019,0,0,0-.411.591c-.016.027-.03.055-.044.083l-.025.049c-.032.06-.062.119-.09.18-.018.04-.034.08-.051.121l-.03.073h-8.768Zm0,1.086h8.683c-.01.034-.014.068-.023.1a3.59,3.59,0,0,0-.083.355c-.008.05-.017.1-.023.149a3.5,3.5,0,0,0-.036.472v0h0a3.717,3.717,0,0,0,.82,2.311c.064.082.115.172.17.259h-9.507Zm0,3.888h9.65a3.131,3.131,0,0,1,.172.392c.013.038.023.076.035.114a3.126,3.126,0,0,1,.089.356c.008.043.017.085.023.128a3.257,3.257,0,0,1,.039.479v.593a3.248,3.248,0,0,1-.041.494c-.009.06-.025.118-.038.177a3.03,3.03,0,0,1-.074.3c-.021.067-.047.133-.072.2-.034.087-.071.171-.112.255-.032.063-.065.126-.1.188-.02.034-.044.066-.065.1h-9.505Zm0,4h9.349l-.012.016a3.72,3.72,0,0,0-.82,2.311v0a3.509,3.509,0,0,0,.031.446c0,.021.007.041.009.062a3.655,3.655,0,0,0,.085.413c0,.007,0,.015,0,.022h-8.648Zm12.439,7.163H278.7c-1.971,0-3.575-1.258-3.575-2.8v-.85h8.715c.013.039.033.075.048.113q.048.127.107.25c.03.065.06.13.094.194.062.114.129.226.2.334.044.064.092.124.139.186s.1.125.149.186.1.113.15.168c.1.1.2.2.3.293.034.029.07.057.105.085q.149.121.308.231l.113.076a4.914,4.914,0,0,0,.951.475l.046.016a5.144,5.144,0,0,0,1.008.256Zm13.257-3.654-4.64,3.654h-7.138v-.778a5.237,5.237,0,0,0,.657-.129,4.418,4.418,0,0,0,3.127-2.745h7.994Zm.662-.234H292.66l-.026.082a4.18,4.18,0,0,1-3.065,2.691,5.1,5.1,0,0,1-.652.116l-.1.011v.988H287.8v-.994h0l-.02,0-.167-.024-.082-.014-.037-.006c-.087-.014-.175-.029-.259-.048h0l-.088-.022a4.823,4.823,0,0,1-1.034-.377l-.064-.035c-.126-.066-.248-.138-.366-.214l-.1-.065a4.4,4.4,0,0,1-.356-.272c-.044-.038-.086-.079-.129-.118q-.1-.093-.195-.192c-.049-.052-.1-.1-.145-.159-.063-.073-.121-.15-.178-.227s-.116-.167-.17-.254c-.041-.066-.081-.133-.118-.2s-.064-.124-.093-.187a3.539,3.539,0,0,1-.133-.332l-.019-.06a3.545,3.545,0,0,1-.116-.485c0-.021-.006-.041-.01-.062a3.146,3.146,0,0,1-.039-.48,3.487,3.487,0,0,1,.77-2.164c.015-.019.024-.04.038-.058.027-.036.052-.072.077-.108h.006l.035-.052c.007-.01.011-.022.018-.033l.1-.151h-.012c.031-.054.06-.108.088-.164.044-.088.082-.178.118-.269.029-.074.061-.146.084-.221.033-.1.056-.208.079-.314.014-.067.033-.132.044-.2a3.535,3.535,0,0,0,.043-.538h0v-.593a3.451,3.451,0,0,0-.041-.507c-.008-.06-.021-.118-.033-.177-.022-.109-.049-.215-.081-.321-.018-.061-.036-.122-.059-.182-.035-.1-.077-.188-.121-.281h.015l-.09-.163,0,0,0-.007-.009-.013-.026-.048h-.005a3.317,3.317,0,0,0-.266-.405,3.488,3.488,0,0,1-.77-2.166v0a3.475,3.475,0,0,1,.045-.512c.006-.041.012-.081.02-.122a3.361,3.361,0,0,1,.121-.451,3.953,3.953,0,0,1,1.626-2.009c.078-.05.157-.1.239-.145.064-.036.129-.072.2-.1.12-.06.242-.116.368-.165.06-.024.122-.045.183-.066.112-.04.227-.075.342-.107q.094-.026.189-.048c.129-.029.261-.053.394-.073l.1-.016.1-.013v-1.136h1.009v1.128h0l.1.012.024,0c.168.02.333.05.5.086.047.01.094.022.141.034q.227.057.446.133l.057.019a4.778,4.778,0,0,1,.466.2c.041.02.08.042.121.062.131.07.257.145.379.226a4,4,0,0,1,1.451,1.674l.016.038c.035.081.066.164.095.247a3.394,3.394,0,0,1,.126.471c.008.037.013.075.018.113a3.348,3.348,0,0,1,.046.517v0a3.485,3.485,0,0,1-.764,2.158,3.434,3.434,0,0,0-.269.413h-.006l-.025.047-.009.015-.093.173h.015c-.045.095-.087.189-.122.286-.017.047-.031.095-.045.142a3.306,3.306,0,0,0-.092.368c-.009.047-.019.094-.026.142a3.527,3.527,0,0,0-.041.516v.623h0a3.4,3.4,0,0,0,.553,1.874l.035.053h9.58Zm0-3.511h-9.452a3.165,3.165,0,0,1-.481-1.691v-.623a3.293,3.293,0,0,1,.038-.478c.007-.041.014-.082.022-.123a3.123,3.123,0,0,1,.091-.365c.01-.034.019-.069.031-.1a3.147,3.147,0,0,1,.168-.386h9.583Zm0-4h-9.442a2.906,2.906,0,0,1,.174-.265,3.724,3.724,0,0,0,.814-2.3h0v0a3.5,3.5,0,0,0-.036-.476c-.006-.047-.014-.093-.022-.14a3.423,3.423,0,0,0-.089-.384c-.007-.026-.01-.052-.018-.077h8.62Zm-8.705-3.889,0-.005-.033-.08,0-.009-.021-.05c-.008-.02-.016-.039-.024-.058-.029-.064-.062-.125-.1-.2l-.023-.044c-.012-.025-.025-.049-.038-.073-.059-.1-.122-.2-.189-.3l-.043-.057c-.057-.08-.117-.158-.181-.234l-.063-.071c-.062-.069-.124-.137-.19-.2l-.067-.064c-.057-.055-.118-.108-.178-.16l-.014-.013-.024-.021-.061-.051c-.054-.043-.114-.087-.173-.129l-.058-.044-.039-.029-.028-.019c-.026-.018-.054-.031-.079-.048q-.165-.108-.34-.2c-.041-.022-.08-.045-.122-.066a4.968,4.968,0,0,0-.464-.207c-.033-.013-.067-.022-.1-.034q-.2-.074-.412-.129c-.047-.012-.093-.025-.14-.036-.172-.041-.346-.076-.525-.1v-.919h8.865c1.971,0,3.575,1.257,3.575,2.8v.85Z" transform="translate(-274.894 -281.348)" fill="#856400"/>
    </g>
    <path id="Path_32623" data-name="Path 32623" d="M297.912,281.349H278.7c-2.1,0-3.81,1.363-3.81,3.038v13.339c0,1.675,1.709,3.038,3.81,3.038h17.528l5.49-4.227v-12.15C301.722,282.712,300.013,281.349,297.912,281.349Zm3.575,15.291-.662.235-4.64,3.654h-7.139v-.042h-.235v.042H287.8v-.042h-.236v.042H278.7c-1.971,0-3.575-1.258-3.575-2.8V284.387c0-1.545,1.6-2.8,3.575-2.8h3.577v-.013H295.46v.013h2.452c1.971,0,3.575,1.258,3.575,2.8Z" transform="translate(0 -0.001)" fill="#b3b3b3"/>
  </g>
</svg>
