<svg xmlns="http://www.w3.org/2000/svg" width="45" height="45" viewBox="0 0 45 45">
  <g id="Group_36197" data-name="Group 36197" transform="translate(-198 -271)">
    <rect id="Rectangle_6643" data-name="Rectangle 6643" width="45" height="45" rx="10" transform="translate(198 271)" fill="#67d3f7"/>
    <g id="Group_36099" data-name="Group 36099" transform="translate(207.11 280.112)">
      <path id="Path_32631" data-name="Path 32631" d="M-1049.031,85.824c-.871-.054-.879-.064-.879-.911q0-1.529,0-3.058c0-.458.148-.605.6-.605h9.494c.457,0,.6.146.6.6q0,1.63,0,3.26c0,.58-.109.69-.685.7-.048,0-.1,0-.19.008a6.421,6.421,0,0,0,.115,1.9,1.608,1.608,0,0,0,.969.969c.276.109.559.205.835.316a2.365,2.365,0,0,1,1.538,2.259c.005,1.279,0,2.558,0,3.837v.328h2.139v-.35q0-3.693,0-7.386c0-.512.139-.652.649-.654.248,0,.5,0,.783,0,0-.362,0-.7,0-1.029,0-.459.147-.6.6-.606h.519v-.332q0-1.558,0-3.116a2.239,2.239,0,0,1,.005-.259.466.466,0,0,1,.476-.446.448.448,0,0,1,.438.476c.007.971,0,1.943,0,2.914V85.4c.215,0,.413,0,.61,0a.473.473,0,0,1,.53.536c0,.354,0,.708,0,1.1h.707c.613,0,.732.117.732.719q0,3.664,0,7.328v.361h.661a1.948,1.948,0,0,1,2.054,2.042q0,4.256,0,8.511a1.933,1.933,0,0,1-2.01,2.023q-11.038,0-22.075,0a2.623,2.623,0,0,1-2.691-2.706q-.005-7.025,0-14.051a2.355,2.355,0,0,1,1.589-2.28c.251-.1.5-.185.754-.285a1.686,1.686,0,0,0,1.116-1.626C-1049.028,86.662-1049.031,86.251-1049.031,85.824Zm12.009,21.276h9.232a1.037,1.037,0,0,0,1.153-1.161q0-4.2,0-8.394a1.039,1.039,0,0,0-1.159-1.158q-9.232,0-18.464,0a1.038,1.038,0,0,0-1.152,1.163q0,4.183,0,8.365a1.044,1.044,0,0,0,1.187,1.184Zm-14.529-14.436v8.6h3.215v-.331q0-1.688,0-3.375a1.959,1.959,0,0,1,2.126-2.114h8.645V92.664Zm10.544-6.834h-7.1c0,.443,0,.865,0,1.288a2.613,2.613,0,0,1-1.675,2.437c-.232.092-.467.176-.7.266a1.528,1.528,0,0,0-1.05,1.887h13.97a1.566,1.566,0,0,0-1.177-1.925c-.233-.089-.47-.171-.7-.276A2.541,2.541,0,0,1-1041,87.15C-1041.021,86.719-1041.007,86.286-1041.007,85.83Zm11.633,8.054V92.676c-.675,0-1.328,0-1.981,0a.468.468,0,0,1-.529-.447c-.008-.279.2-.467.535-.474.221,0,.442,0,.663,0h1.314V90.546h-.877a2.131,2.131,0,0,1-.288-.008.44.44,0,0,1-.384-.463.447.447,0,0,1,.468-.447c.361-.012.723,0,1.086,0V87.986h-4.172v7.441h4.164v-.62c-.348,0-.674,0-1,0-.346,0-.543-.171-.545-.457s.193-.46.537-.465S-1029.716,93.884-1029.374,93.884Zm-19.6-9.017h8.819V82.19h-8.819Zm-2.583,17.338c0,1.146-.032,2.27.012,3.39a1.52,1.52,0,0,0,1.236,1.425,22.545,22.545,0,0,0,2.271.109,4.952,4.952,0,0,1-.292-2.48c-.027-.812-.006-1.625-.006-2.445Zm19.448-15.864v.678h1.3v-.678Z" transform="translate(1052.492 -81.248)" fill="#fff"/>
      <path id="Path_32632" data-name="Path 32632" d="M-909.55,353.661a1.911,1.911,0,0,1,1.91-1.9,1.912,1.912,0,0,1,1.911,1.932,1.916,1.916,0,0,1-1.91,1.9A1.915,1.915,0,0,1-909.55,353.661Zm2.9.01a.994.994,0,0,0-.988-.994.994.994,0,0,0-.986,1,.994.994,0,0,0,.988.993A.988.988,0,0,0-906.653,353.671Z" transform="translate(920.568 -330.907)" fill="#fff"/>
      <path id="Path_32633" data-name="Path 32633" d="M-843.713,353.66a1.911,1.911,0,0,1,1.909-1.9,1.915,1.915,0,0,1,1.913,1.931,1.92,1.92,0,0,1-1.911,1.905A1.915,1.915,0,0,1-843.713,353.66Zm.925.014a.991.991,0,0,0,.99.99,1,1,0,0,0,.984-1,1,1,0,0,0-.992-.99A.99.99,0,0,0-842.788,353.674Z" transform="translate(859.806 -330.906)" fill="#fff"/>
      <path id="Path_32634" data-name="Path 32634" d="M-839.887,294.565a1.92,1.92,0,0,1-1.9,1.913,1.915,1.915,0,0,1-1.918-1.924,1.909,1.909,0,0,1,1.9-1.912A1.916,1.916,0,0,1-839.887,294.565Zm-.924-.015a.992.992,0,0,0-1-.983.987.987,0,0,0-.975,1,.992.992,0,0,0,1,.984A1,1,0,0,0-840.811,294.55Z" transform="translate(859.802 -276.348)" fill="#fff"/>
      <path id="Path_32635" data-name="Path 32635" d="M-909.552,294.553a1.912,1.912,0,0,1,1.9-1.91,1.913,1.913,0,0,1,1.918,1.924,1.916,1.916,0,0,1-1.9,1.912A1.916,1.916,0,0,1-909.552,294.553Zm2.9.02a.987.987,0,0,0-.974-1,.987.987,0,0,0-1,.979,1,1,0,0,0,.974,1.007A.994.994,0,0,0-906.655,294.574Z" transform="translate(920.57 -276.349)" fill="#fff"/>
      <path id="Path_32636" data-name="Path 32636" d="M-971.291,294.576a1.936,1.936,0,0,1-1.922,1.9,1.934,1.934,0,0,1-1.916-1.936,1.93,1.93,0,0,1,1.921-1.9A1.93,1.93,0,0,1-971.291,294.576Zm-1.906-1.008a1,1,0,0,0-1.006.978,1.008,1.008,0,0,0,.979,1.008,1.015,1.015,0,0,0,1.008-.981A1,1,0,0,0-973.2,293.568Z" transform="translate(981.092 -276.347)" fill="#fff"/>
      <path id="Path_32637" data-name="Path 32637" d="M-776.4,292.644a1.929,1.929,0,0,1,1.929,1.921,1.935,1.935,0,0,1-1.908,1.915,1.936,1.936,0,0,1-1.93-1.923A1.933,1.933,0,0,1-776.4,292.644Zm1.005,1.92a1,1,0,0,0-.992-.995,1,1,0,0,0-1,.99,1.013,1.013,0,0,0,.993,1A1.009,1.009,0,0,0-775.4,294.564Z" transform="translate(799.443 -276.35)" fill="#fff"/>
      <path id="Path_32638" data-name="Path 32638" d="M-971.288,353.688a1.937,1.937,0,0,1-1.923,1.9,1.934,1.934,0,0,1-1.915-1.937,1.931,1.931,0,0,1,1.922-1.9A1.932,1.932,0,0,1-971.288,353.688Zm-.924-.031a1.01,1.01,0,0,0-1-.985,1,1,0,0,0-.984,1,1.007,1.007,0,0,0,1,.986A1.01,1.01,0,0,0-972.213,353.657Z" transform="translate(981.09 -330.902)" fill="#fff"/>
      <path id="Path_32639" data-name="Path 32639" d="M-776.375,355.591a1.935,1.935,0,0,1-1.932-1.921,1.932,1.932,0,0,1,1.907-1.916,1.93,1.93,0,0,1,1.931,1.92A1.934,1.934,0,0,1-776.375,355.591Zm-.006-2.917a1.007,1.007,0,0,0-1,.987,1.011,1.011,0,0,0,.988,1,1.009,1.009,0,0,0,1-.988A1.007,1.007,0,0,0-776.381,352.674Z" transform="translate(799.441 -330.904)" fill="#fff"/>
    </g>
  </g>
</svg>
