<svg xmlns="http://www.w3.org/2000/svg" width="45" height="45" viewBox="0 0 45 45">
  <g id="Group_36196" data-name="Group 36196" transform="translate(-130 -271)">
    <rect id="Rectangle_6643" data-name="Rectangle 6643" width="45" height="45" rx="10" transform="translate(130 271)" fill="#0dd0d0"/>
    <g id="Group_36098" data-name="Group 36098" transform="translate(677.875 273.483)">
      <path id="Path_32609" data-name="Path 32609" d="M-526.26,93.493c.369.072.449.319.446.652-.011,1.065,0,2.13,0,3.194,0,.432-.147.58-.578.58h-5.9c-.435,0-.583-.145-.583-.574q0-1.611,0-3.222c0-.408.054-.487.438-.64,0-.344.015-.693,0-1.04a1.368,1.368,0,0,0-.52-.966c-.937-.826-1.866-1.662-2.806-2.485a2.522,2.522,0,0,1-.8-1.287q-.915-3.441-1.843-6.878a1.8,1.8,0,0,1,.675-2.073.359.359,0,0,0,.108-.25,1.784,1.784,0,0,1,1.453-1.788,1.834,1.834,0,0,1,2.018,1.26q.938,2.73,1.894,5.454a.531.531,0,0,0,.215.259c1.232.73,2.47,1.451,3.706,2.176a3.973,3.973,0,0,1,2.092,3.655C-526.261,90.839-526.26,92.16-526.26,93.493Zm-.9,0c.006-.053.013-.089.013-.124,0-1.368.023-2.737-.009-4.1a2.886,2.886,0,0,0-1.424-2.5c-1.315-.808-2.653-1.577-4-2.336a1.109,1.109,0,0,0-.709-.076.758.758,0,0,0-.6.709.845.845,0,0,0,.458.9c.8.464,1.609.925,2.411,1.392.288.167.367.406.23.641a.448.448,0,0,1-.67.12c-.813-.465-1.629-.928-2.434-1.405a1.751,1.751,0,0,1-.721-2.292.481.481,0,0,0,.034-.308q-.654-2.058-1.327-4.109a.9.9,0,0,0-.757-.642.862.862,0,0,0-.933,1.14c.622,2.33,1.254,4.657,1.875,6.987a1.663,1.663,0,0,0,.526.849c.938.826,1.869,1.661,2.807,2.487a2.286,2.286,0,0,1,.823,1.819c0,.282,0,.565,0,.86Zm-4.825.908v2.611h5.265V94.4Zm-4.756-15.958a1.9,1.9,0,0,1,1.751,1.487c.172.589.372,1.169.561,1.752q.308.95.62,1.9l.586-.174c-.128-.367-.252-.72-.374-1.073L-535,78.264a.962.962,0,0,0-1.04-.675A.863.863,0,0,0-536.737,78.447Z" transform="translate(0 -64.718)" fill="#fff"/>
      <path id="Path_32610" data-name="Path 32610" d="M-353.6,93.472c0-1.306.009-2.619,0-3.931a3.977,3.977,0,0,1,1.477-3.265,4.841,4.841,0,0,1,.638-.431c1.211-.713,2.427-1.416,3.634-2.135a.7.7,0,0,0,.279-.339q.958-2.709,1.894-5.425a1.808,1.808,0,0,1,2-1.242,1.786,1.786,0,0,1,1.461,1.783.393.393,0,0,0,.124.27,1.765,1.765,0,0,1,.669,2q-.825,3.081-1.649,6.162c-.435,1.632-.355,1.481-1.622,2.606-.715.635-1.424,1.275-2.148,1.9a1.5,1.5,0,0,0-.572,1.278c.013.256,0,.513,0,.764.395.167.441.239.441.669q0,1.6,0,3.195c0,.432-.147.579-.579.579h-5.9c-.435,0-.581-.145-.582-.575q0-1.611,0-3.222C-354.045,93.708-353.991,93.629-353.6,93.472Zm5.3.018c0-.287,0-.552,0-.816a2.321,2.321,0,0,1,.849-1.889c.936-.815,1.87-1.633,2.779-2.477a1.815,1.815,0,0,0,.5-.793c.647-2.323,1.264-4.654,1.887-6.984a.888.888,0,0,0-.575-1.168.939.939,0,0,0-1.123.687c-.428,1.317-.858,2.632-1.274,3.953a.706.706,0,0,0,.022.436,1.673,1.673,0,0,1-.034,1.489,2.076,2.076,0,0,1-.649.723c-.823.519-1.68.984-2.523,1.472a.392.392,0,0,1-.53-.029.653.653,0,0,1-.132-.463c.017-.114.169-.232.288-.3.767-.453,1.541-.895,2.314-1.338a.909.909,0,0,0,.518-.67.843.843,0,0,0-.359-.867.862.862,0,0,0-.986-.023c-1.27.741-2.541,1.479-3.806,2.227a3.053,3.053,0,0,0-1.584,2.778c-.006,1.267,0,2.535,0,3.8v.252Zm.431.916h-5.275v2.607h5.275Zm4.75-15.965a.874.874,0,0,0,0-.146.874.874,0,0,0-.766-.719.917.917,0,0,0-.95.642q-.608,1.737-1.208,3.476c-.2.567-.395,1.134-.6,1.712l.582.168c.028-.076.054-.143.077-.212.387-1.193.766-2.388,1.168-3.577a2.423,2.423,0,0,1,.389-.716A1.758,1.758,0,0,1-343.123,78.441Z" transform="translate(-170.89 -64.71)" fill="#fff"/>
      <path id="Path_32611" data-name="Path 32611" d="M-454.973,8.107a4.46,4.46,0,0,1,3.449-1.253,4.425,4.425,0,0,1,4.066,4.581,4.486,4.486,0,0,1-1.364,3.009q-2.862,2.849-5.716,5.7c-.363.363-.541.364-.9.007-1.95-1.947-3.919-3.877-5.846-5.847a4.386,4.386,0,0,1,1.79-7.241,4.3,4.3,0,0,1,4.3.882l.167.143A.219.219,0,0,0-454.973,8.107Zm-.01,11.239,1.813-1.812c1.293-1.293,2.6-2.57,3.875-3.883a3.5,3.5,0,0,0,.113-4.7,3.528,3.528,0,0,0-4.664-.621,6.713,6.713,0,0,0-.747.649c-.3.281-.5.284-.8-.009-.105-.1-.207-.209-.315-.309a3.529,3.529,0,0,0-4.238-.43,3.511,3.511,0,0,0-.642,5.523c1.806,1.819,3.627,3.624,5.441,5.435C-455.1,19.239-455.055,19.28-454.983,19.347Z" transform="translate(-70.385)" fill="#fff"/>
      <path id="Path_32612" data-name="Path 32612" d="M-397.649,52.066c0,.425,0,.817,0,1.21s-.156.551-.55.553c-.524,0-1.048,0-1.572,0-.362,0-.523-.161-.526-.519,0-.4,0-.8,0-1.243h-1.165c-.465,0-.6-.139-.6-.611,0-.5,0-1.01,0-1.514,0-.358.164-.515.527-.519.4,0,.805,0,1.239,0,0-.414,0-.805,0-1.2,0-.415.15-.565.563-.566q.772,0,1.545,0c.38,0,.538.157.541.532,0,.4,0,.8,0,1.23.419,0,.812,0,1.205,0,.411,0,.56.153.561.568,0,.514,0,1.028,0,1.542,0,.376-.161.531-.541.534S-397.213,52.066-397.649,52.066Zm.872-1.763c-.416,0-.8,0-1.187,0-.415,0-.566-.15-.568-.561,0-.392,0-.784,0-1.185h-.883c0,.4,0,.783,0,1.166,0,.432-.147.579-.577.58-.391,0-.782,0-1.168,0v.882c.407,0,.792,0,1.178,0,.415,0,.565.15.567.562,0,.392,0,.783,0,1.185h.883c0-.4,0-.783,0-1.166,0-.433.146-.578.576-.58.391,0,.783,0,1.179,0Z" transform="translate(-126.402 -37.821)" fill="#fff"/>
    </g>
  </g>
</svg>
