<svg xmlns="http://www.w3.org/2000/svg" width="37.803" height="52.864" viewBox="0 0 37.803 52.864">
  <g id="Group_35952" data-name="Group 35952" transform="translate(0 0)">
    <path id="Path_32532" data-name="Path 32532" d="M436.536-11.962a8.259,8.259,0,0,0,.454-1.549,13.063,13.063,0,0,0-3.238-10.449,1.436,1.436,0,0,1-.329.163,1.623,1.623,0,0,1-.532.089,2.734,2.734,0,0,1-2.321-2.033c-.517-1.475-.078-2.924,1-3.3a1.537,1.537,0,0,1,.532-.092,2.685,2.685,0,0,1,2.277,1.918,14.608,14.608,0,0,1,5.533,12.663,13.946,13.946,0,0,1-1.3,4.491A3.064,3.064,0,0,0,436.536-11.962Z" transform="translate(-402.189 29.139)" fill="#0dd0d0"/>
    <path id="Path_32533" data-name="Path 32533" d="M436.068-7.823a3.459,3.459,0,0,1-.429-3.138,11.111,11.111,0,0,1-3.478-2.695,11.466,11.466,0,0,1-2.587-8.749,1.607,1.607,0,0,0,.7-.081c1.08-.381,1.516-1.833,1-3.3a2.725,2.725,0,0,0-2.318-2.037,1.542,1.542,0,0,0-.536.092,2.215,2.215,0,0,0-1.175,2.6l-.018.063a15.578,15.578,0,0,0,2.743,13.063A11.043,11.043,0,0,0,436.068-7.823Z" transform="translate(-411.853 32.676)" fill="#0dd0d0"/>
    <path id="Path_32534" data-name="Path 32534" d="M440.647-20.366a4.021,4.021,0,0,0-.133-1.83,3.064,3.064,0,0,0-2.081-1.9,4.8,4.8,0,0,0-1.257-.225,4.951,4.951,0,0,1-5.507,1.763c-.824-.292-1.708.761-2.077,2.074a3.446,3.446,0,0,0,.425,3.138,2.564,2.564,0,0,0,1.652.854c4,.614,3.582,4.657,3.582,4.657a5.663,5.663,0,0,0,1.065.54,1.718,1.718,0,0,0,2.066-.322,2.673,2.673,0,0,0,.554-1.375C437.608-19.153,440.133-16.455,440.647-20.366Z" transform="translate(-404.74 42.14)" fill="#0dd0d0"/>
    <path id="Path_32535" data-name="Path 32535" d="M438.137,9.533c.547-.059,1.116-.011,1.678-.037,9.788-.41,16.223-5.008,17.214-13.388a26.494,26.494,0,0,0-.325-7.744,1.717,1.717,0,0,1-2.066.318,31.751,31.751,0,0,1,.484,4.761c.2,8.324-5.249,13.144-14.567,13.979a22.144,22.144,0,0,1-3.393.155c-17.291-1.142-12.5-23.353-8.121-30.823a4.893,4.893,0,0,1-2.159-.647C414.6,5.915,433.021,10.08,438.137,9.533Z" transform="translate(-422.734 43.286)" fill="#0dd0d0"/>
    <g id="Group_35950" data-name="Group 35950" transform="translate(2.149 9.597)">
      <path id="Path_32536" data-name="Path 32536" d="M427.96-16.782a4.878,4.878,0,0,1-4.639-5.112,4.882,4.882,0,0,1,5.112-4.643,4.882,4.882,0,0,1,4.639,5.119A4.875,4.875,0,0,1,427.96-16.782Z" transform="translate(-423.316 26.543)" fill="#f4ae5c"/>
      <path id="Path_32537" data-name="Path 32537" d="M426.893-26a2.9,2.9,0,0,0-3.038,2.757,2.9,2.9,0,0,0,2.757,3.038,2.9,2.9,0,0,0,3.039-2.757A2.9,2.9,0,0,0,426.893-26Z" transform="translate(-421.871 27.989)" fill="#fff"/>
    </g>
  </g>
</svg>
