<svg xmlns="http://www.w3.org/2000/svg" width="25.475" height="23.885" viewBox="0 0 25.475 23.885">
  <g id="Group_35899" data-name="Group 35899" transform="translate(-12.666 -35.313)">
    <path id="Path_32490" data-name="Path 32490" d="M566.085,421.378l-11.653-9.828a1.227,1.227,0,0,0-1.53,0l-11.654,9.828c-.68.574-.2,1.559.767,1.559h2.313a1.008,1.008,0,0,1,1.082.913v10.4a1.008,1.008,0,0,0,1.082.915h3.562v-6.842h7.229v6.842h3.562a1.01,1.01,0,0,0,1.082-.915v-10.4a1.008,1.008,0,0,1,1.082-.913h2.313C566.282,422.937,566.768,421.952,566.085,421.378Z" transform="translate(-528.263 -375.97)" fill="#fff"/>
  </g>
</svg>
