<svg xmlns="http://www.w3.org/2000/svg" xmlns:xlink="http://www.w3.org/1999/xlink" width="21" height="20" viewBox="0 0 21 20">
  <defs>
    <clipPath id="clip-path">
      <rect id="Rectangle_6686" data-name="Rectangle 6686" width="21" height="20" transform="translate(1082.62 -151.505)" fill="#fff" stroke="#707070" stroke-width="1"/>
    </clipPath>
  </defs>
  <g id="Mask_Group_20" data-name="Mask Group 20" transform="translate(-1082.62 151.505)" clip-path="url(#clip-path)">
    <path id="googleplus" d="M8.585,13.907v2.945h4.874a4.635,4.635,0,0,1-4.87,3.7,5.424,5.424,0,0,1,0-10.846,4.831,4.831,0,0,1,3.424,1.325L14.34,8.794A8.222,8.222,0,0,0,8.588,6.55a8.584,8.584,0,1,0,0,17.169c4.959,0,8.244-3.483,8.244-8.39a7.826,7.826,0,0,0-.135-1.422H8.585Zm18.4,0H24.532V11.452H22.078v2.454H19.624v2.453H22.08v2.456h2.462V16.359h2.445" transform="translate(1084.499 -156.301)" fill="#028e8e"/>
  </g>
</svg>
