<svg id="Group_35854" data-name="Group 35854" xmlns="http://www.w3.org/2000/svg" width="23.495" height="22.583" viewBox="0 0 23.495 22.583">
  <g id="Group_35849" data-name="Group 35849" transform="translate(3.619)">
    <path id="Path_32493" data-name="Path 32493" d="M119.255,422.092a8.125,8.125,0,0,0-7.107-8.057v-.852a1.02,1.02,0,0,0-2.041,0v.852A8.125,8.125,0,0,0,103,422.092v4.846h16.255Z" transform="translate(-103 -412.164)" fill="#fff"/>
    <path id="Path_32494" data-name="Path 32494" d="M108.914,425.435a3.424,3.424,0,0,0,3.422-3.424H105.49A3.424,3.424,0,0,0,108.914,425.435Z" transform="translate(-100.645 -402.853)" fill="#fff"/>
  </g>
  <path id="Path_32495" data-name="Path 32495" d="M114.631,415.858a2.792,2.792,0,1,1-2.792-2.792A2.793,2.793,0,0,1,114.631,415.858Z" transform="translate(-93.663 -411.311)" fill="#0dd0d0" stroke="#fff" stroke-miterlimit="10" stroke-width="0.664"/>
  <path id="Path_32496" data-name="Path 32496" d="M124.009,421.782a3.324,3.324,0,0,1-2.994-1.551H104.759a3.324,3.324,0,0,1-2.994,1.551.626.626,0,0,0,0,1.253h22.244a.626.626,0,1,0,0-1.253Z" transform="translate(-101.14 -404.536)" fill="#fff"/>
</svg>
