<svg xmlns="http://www.w3.org/2000/svg" width="18.554" height="18.555" viewBox="0 0 18.554 18.555">
  <path id="Path_33363" data-name="Path 33363" d="M2153.533,742.746h.362a1.973,1.973,0,0,1,.719.526q3.923,3.929,7.852,7.852a1.97,1.97,0,0,1,.526.719v.362a2.831,2.831,0,0,1-.327.509q-4.124,4.14-8.263,8.264a1.178,1.178,0,0,1-.437.276.917.917,0,0,1-.989-.318q-4.085-4.09-8.173-8.176a2.041,2.041,0,0,1-.181-.2.865.865,0,0,1-.007-1.06,2.4,2.4,0,0,1,.218-.242q3.99-3.992,7.98-7.984A1.964,1.964,0,0,1,2153.533,742.746Zm-1.675,9.29h3.718V754.3l3.169-3.174-3.189-3.192v2.236h-.232c-1.431,0-2.861,0-4.292,0a1.407,1.407,0,0,0-.5.076.837.837,0,0,0-.531.864q0,1.784,0,3.568a.758.758,0,0,0,.02.118h1.833Z" transform="translate(-2144.437 -742.746)" fill="#fff"/>
</svg>
