<svg xmlns="http://www.w3.org/2000/svg" width="16.052" height="16.052" viewBox="0 0 16.052 16.052">
  <g id="scan" transform="translate(-4.5 -4.5)">
    <path id="Path_33302" data-name="Path 33302" d="M16.5,4.5h1.784V20.552H16.5Z" transform="translate(-4.866)" fill="#141414"/>
    <path id="Path_33303" data-name="Path 33303" d="M6.284,10.175a.892.892,0,0,1,.892-.892H9.851V7.5H7.175A2.675,2.675,0,0,0,4.5,10.175V17.31a2.675,2.675,0,0,0,2.675,2.675H9.851V18.2H7.175a.892.892,0,0,1-.892-.892Z" transform="translate(0 -1.216)" fill="#141414"/>
    <path id="Path_33304" data-name="Path 33304" d="M26.067,10.175a.892.892,0,0,0-.892-.892H22.5V7.5h2.675a2.675,2.675,0,0,1,2.675,2.675V17.31a2.675,2.675,0,0,1-2.675,2.675H22.5V18.2h2.675a.892.892,0,0,0,.892-.892Z" transform="translate(-7.299 -1.216)" fill="#141414"/>
  </g>
</svg>
