<svg xmlns="http://www.w3.org/2000/svg" width="7.722" height="11.301" viewBox="0 0 7.722 11.301">
  <g id="wifi" transform="translate(14.472 -1.054) rotate(90)">
    <path id="Path_32640" data-name="Path 32640" d="M12.245,9.087a.364.364,0,0,0-.036-.552,9.38,9.38,0,0,0-11.009,0,.364.364,0,0,0-.036.552.388.388,0,0,0,.5.038,8.631,8.631,0,0,1,10.079,0,.389.389,0,0,0,.5-.037Z" transform="translate(0 0)" fill="#fff"/>
    <path id="Path_32641" data-name="Path 32641" d="M13.859,15.2a.361.361,0,0,0-.047-.559,7.132,7.132,0,0,0-7.751,0,.36.36,0,0,0-.047.559.394.394,0,0,0,.489.049,6.384,6.384,0,0,1,6.868,0A.393.393,0,0,0,13.859,15.2Zm-1.638,1.638a.35.35,0,0,0-.075-.563,4.889,4.889,0,0,0-4.421,0,.35.35,0,0,0-.075.563l.011.011a.4.4,0,0,0,.458.067,4.136,4.136,0,0,1,3.631,0,.4.4,0,0,0,.458-.068l.011-.011Zm-1.49,1.49a.312.312,0,0,0-.03-.5,1.5,1.5,0,0,0-1.531,0,.312.312,0,0,0-.03.5l.53.53a.375.375,0,0,0,.531,0l.531-.531Z" transform="translate(-3.231 -4.499)" fill="#fff"/>
  </g>
</svg>
